<?xml version="1.0" encoding="UTF-8"?>
<!DOCTYPE svg PUBLIC "-//W3C//DTD SVG 1.1//EN" "http://www.w3.org/Graphics/SVG/1.1/DTD/svg11.dtd">
<!-- Creator: CorelDRAW -->
<svg xmlns="http://www.w3.org/2000/svg" xml:space="preserve" width="103.965mm" height="45.9004mm" version="1.1" style="shape-rendering:geometricPrecision; text-rendering:geometricPrecision; image-rendering:optimizeQuality; fill-rule:evenodd; clip-rule:evenodd"
viewBox="0 0 10255.61 4527.85"
 xmlns:xlink="http://www.w3.org/1999/xlink"
 xmlns:xodm="http://www.corel.com/coreldraw/odm/2003">
 <defs>
  <style type="text/css">
   <![CDATA[
    .fil1 {fill:#332C2B}
    .fil0 {fill:#332C2B;fill-rule:nonzero}
   ]]>
  </style>
 </defs>
 <g id="圖層_x0020_1">
  <metadata id="CorelCorpID_0Corel-Layer"/>
  <path class="fil0" d="M4570.57 2942.82c34.81,0 62.29,-13.93 83.92,-38.85l-22.72 -26.74c-16.12,17.59 -35.18,28.58 -59.73,28.58 -47.64,0 -77.68,-39.21 -77.68,-103.33 0,-63.4 32.25,-102.24 78.78,-102.24 21.99,0 38.85,9.89 52.78,24.18l23.08 -27.12c-16.49,-17.95 -42.87,-34.07 -76.59,-34.07 -68.15,0 -121.65,52.77 -121.65,140.71 0,88.32 52.03,138.88 119.81,138.88zm215.34 0c49.84,0 94.91,-38.48 94.91,-105.17 0,-67.42 -45.07,-106.27 -94.91,-106.27 -49.84,0 -94.91,38.85 -94.91,106.27 0,66.68 45.07,105.17 94.91,105.17zm0 -34.45c-31.52,0 -51.3,-28.21 -51.3,-70.72 0,-42.87 19.78,-71.46 51.3,-71.46 31.88,0 51.67,28.59 51.67,71.46 0,42.51 -19.79,70.72 -51.67,70.72zm151.21 29.68l41.78 0 0 -142.91c16.85,-18.33 31.87,-27.48 45.44,-27.48 23.08,0 33.71,13.92 33.71,48.73l0 121.66 42.14 0 0 -142.91c16.86,-18.33 31.52,-27.48 45.44,-27.48 22.73,0 33.72,13.92 33.72,48.73l0 121.66 42.14 0 0 -126.79c0,-51.3 -19.79,-79.88 -61.93,-79.88 -25.28,0 -45.8,15.75 -65.59,37.01 -8.8,-23.08 -25.66,-37.01 -55.7,-37.01 -24.92,0 -45.07,15.02 -62.29,33.34l-1.09 0 -3.29 -28.21 -34.45 0 0 201.54zm352.02 81.72l41.78 0 0 -65.22 -1.1 -34.45c17.22,14.66 35.18,22.72 53.13,22.72 45.45,0 86.85,-39.58 86.85,-108.84 0,-61.93 -28.58,-102.6 -79.88,-102.6 -22.35,0 -44.34,12.46 -61.93,27.12l-1.09 0 -3.29 -21.99 -34.45 0 0 283.26zm85.74 -111.76c-12.46,0 -28.21,-4.76 -43.97,-18.32l0 -98.58c17.21,-16.49 32.24,-24.55 48,-24.55 33.71,0 47.27,26.02 47.27,68.16 0,47.27 -21.99,73.28 -51.31,73.28zm235.86 34.81c26.39,0 49.47,-8.8 68.16,-21.26l-14.66 -26.74c-14.66,9.52 -30.05,15.02 -48,15.02 -34.81,0 -59,-23.09 -62.29,-61.56l130.81 0c1.1,-4.76 1.83,-13.19 1.83,-21.26 0,-57.16 -28.59,-95.64 -82.08,-95.64 -47.27,0 -91.98,40.67 -91.98,106.27 0,66.32 43.61,105.17 98.2,105.17zm-57.16 -123.49c4.02,-35.54 26.38,-54.97 51.66,-54.97 29.32,0 45.07,20.15 45.07,54.97l-96.73 0zm250.87 123.49c14.66,0 28.21,-3.67 39.58,-7.33l-7.69 -31.15c-5.87,2.57 -14.66,4.76 -21.62,4.76 -20.88,0 -29.32,-12.46 -29.32,-36.64l0 -102.24 52.4 0 0 -33.72 -52.4 0 0 -55.7 -35.54 0 -4.76 55.7 -31.14 2.2 0 31.52 29.31 0 0 101.87c0,42.51 15.76,70.72 61.2,70.72zm84.15 -4.76l41.78 0 0 -201.54 -41.78 0 0 201.54zm20.88 -239.28c15.39,0 27.12,-10.26 27.12,-24.92 0,-15.02 -11.73,-24.92 -27.12,-24.92 -15.39,0 -26.75,9.89 -26.75,24.92 0,14.66 11.36,24.92 26.75,24.92zm94.78 239.28l38.12 0 0 -133.39c0,-24.18 -3.3,-58.99 -5.14,-83.54l1.47 0 21.26 62.29 47.27 128.62 26.38 0 46.91 -128.62 21.62 -62.29 1.46 0c-2.2,24.55 -5.49,59.36 -5.49,83.54l0 133.39 39.58 0 0 -269.7 -49.11 0 -48.73 136.31c-6.23,17.96 -11.36,36.28 -17.59,54.6l-1.83 0c-6.23,-18.32 -11.73,-36.64 -17.95,-54.6l-49.47 -136.31 -48.74 0 0 269.7zm354.95 4.76c24.19,0 45.8,-12.09 64.13,-27.85l1.09 0 3.67 23.08 34.44 0 0 -121.29c0,-53.5 -23.08,-85.38 -73.28,-85.38 -32.25,0 -60.46,13.19 -81.35,26.39l15.76 28.58c17.22,-10.99 37,-20.52 58.26,-20.52 29.68,0 38.11,20.52 38.47,43.98 -83.91,9.15 -120.55,31.51 -120.55,74.75 0,35.54 24.55,58.26 59.36,58.26zm12.82 -33.34c-17.95,0 -31.52,-8.07 -31.52,-27.86 0,-22.72 20.15,-37.74 79.88,-45.07l0 49.47c-16.48,15.02 -30.78,23.46 -48.37,23.46zm218.64 33.34c14.66,0 28.21,-3.67 39.58,-7.33l-7.69 -31.15c-5.87,2.57 -14.66,4.76 -21.62,4.76 -20.88,0 -29.32,-12.46 -29.32,-36.64l0 -102.24 52.4 0 0 -33.72 -52.4 0 0 -55.7 -35.54 0 -4.76 55.7 -31.14 2.2 0 31.52 29.31 0 0 101.87c0,42.51 15.76,70.72 61.2,70.72zm84.15 -4.76l41.78 0 0 -142.91c17.94,-17.96 30.77,-27.48 49.45,-27.48 23.82,0 34.08,13.92 34.08,48.73l0 121.66 42.14 0 0 -126.79c0,-51.3 -19.06,-79.88 -61.93,-79.88 -27.48,0 -47.64,15.02 -65.21,31.88l1.47 -39.94 0 -77.32 -41.78 0 0 292.05zm344.69 -110.3l10.99 -36.28c8.8,-29.32 17.22,-58.99 24.92,-89.78l1.47 0c8.42,30.41 16.48,60.46 25.65,89.78l10.62 36.28 -73.65 0zm106.63 110.3l45.07 0 -89.4 -269.7 -49.11 0 -89.41 269.7 43.24 0 23.09 -76.95 93.8 0 22.72 76.95zm140.59 4.76c27.86,0 47.65,-13.93 65.96,-35.18l1.09 0 3.3 30.41 34.44 0 0 -201.54 -42.13 0 0 139.98c-16.86,21.26 -29.68,30.05 -48.38,30.05 -23.81,0 -33.71,-13.55 -33.71,-48.37l0 -121.66 -42.14 0 0 126.79c0,51.31 18.68,79.52 61.55,79.52zm242.82 0c14.66,0 28.21,-3.67 39.58,-7.33l-7.69 -31.15c-5.87,2.57 -14.66,4.76 -21.62,4.76 -20.88,0 -29.32,-12.46 -29.32,-36.64l0 -102.24 52.4 0 0 -33.72 -52.4 0 0 -55.7 -35.54 0 -4.76 55.7 -31.14 2.2 0 31.52 29.31 0 0 101.87c0,42.51 15.76,70.72 61.2,70.72zm158.54 0c49.84,0 94.91,-38.48 94.91,-105.17 0,-67.42 -45.07,-106.27 -94.91,-106.27 -49.84,0 -94.91,38.85 -94.91,106.27 0,66.68 45.07,105.17 94.91,105.17zm0 -34.45c-31.52,0 -51.3,-28.21 -51.3,-70.72 0,-42.87 19.78,-71.46 51.3,-71.46 31.88,0 51.67,28.59 51.67,71.46 0,42.51 -19.79,70.72 -51.67,70.72zm154.87 29.68l38.12 0 0 -133.39c0,-24.18 -3.3,-58.99 -5.14,-83.54l1.47 0 21.26 62.29 47.27 128.62 26.38 0 46.91 -128.62 21.62 -62.29 1.46 0c-2.2,24.55 -5.49,59.36 -5.49,83.54l0 133.39 39.58 0 0 -269.7 -49.11 0 -48.73 136.31c-6.23,17.96 -11.36,36.28 -17.59,54.6l-1.83 0c-6.23,-18.32 -11.73,-36.64 -17.95,-54.6l-49.47 -136.31 -48.74 0 0 269.7zm387.93 4.76c49.84,0 94.91,-38.48 94.91,-105.17 0,-67.42 -45.07,-106.27 -94.91,-106.27 -49.84,0 -94.91,38.85 -94.91,106.27 0,66.68 45.07,105.17 94.91,105.17zm0 -34.45c-31.52,0 -51.3,-28.21 -51.3,-70.72 0,-42.87 19.78,-71.46 51.3,-71.46 31.88,0 51.67,28.59 51.67,71.46 0,42.51 -19.79,70.72 -51.67,70.72zm220.84 34.45c22.72,0 43.6,-12.09 58.62,-27.48l1.1 0 3.66 22.72 34.45 0 0 -292.05 -42.14 0 0 74.75 1.83 33.34c-16.49,-13.92 -31.15,-22.72 -54.24,-22.72 -45.07,0 -86.48,40.67 -86.48,106.27 0,66.68 32.61,105.17 83.19,105.17zm9.89 -34.81c-31.52,0 -49.47,-25.28 -49.47,-71.09 0,-43.6 22.72,-70.35 50.93,-70.35 15.02,0 29.32,4.76 44.34,18.33l0 98.57c-14.66,16.86 -28.95,24.55 -45.8,24.55zm242.09 34.81c26.39,0 49.47,-8.8 68.16,-21.26l-14.66 -26.74c-14.66,9.52 -30.05,15.02 -48,15.02 -34.81,0 -59,-23.09 -62.29,-61.56l130.81 0c1.1,-4.76 1.83,-13.19 1.83,-21.26 0,-57.16 -28.59,-95.64 -82.08,-95.64 -47.27,0 -91.98,40.67 -91.98,106.27 0,66.32 43.61,105.17 98.2,105.17zm-57.16 -123.49c4.02,-35.54 26.38,-54.97 51.66,-54.97 29.32,0 45.07,20.15 45.07,54.97l-96.73 0zm228.9 123.49c10.26,0 17.59,-1.47 22.72,-3.29l-5.5 -31.88c-3.66,0.73 -5.13,0.73 -6.95,0.73 -5.13,0 -10.26,-4.03 -10.26,-15.39l0 -246.98 -41.78 0 0 244.78c0,32.61 11.35,52.04 41.78,52.04zm220.83 0c59,0 94.91,-35.18 94.91,-78.42 0,-39.57 -23.08,-59.35 -54.97,-72.92l-37.01 -15.75c-21.99,-8.8 -43.6,-17.59 -43.6,-40.67 0,-21.62 17.95,-34.81 45.44,-34.81 23.82,0 42.51,9.15 59.36,24.18l22.35 -27.12c-20.52,-20.88 -50.2,-34.07 -81.72,-34.07 -51.31,0 -88.67,31.88 -88.67,74.39 0,39.2 28.94,59.73 54.97,70.72l37.38 16.12c24.92,11 43.24,18.69 43.24,43.25 0,22.72 -18.32,38.11 -50.94,38.11 -26.01,0 -52.4,-12.46 -71.81,-31.88l-24.91 29.32c24.53,24.92 58.98,39.58 95.99,39.58zm311.71 -206.31l-41.04 0 -32.25 103.71 -15.76 56.8 -1.82 0c-6.23,-18.69 -12.46,-38.85 -18.33,-56.8l-37.38 -103.71 -43.24 0 79.88 200.07 -4.03 13.93c-7.33,21.62 -20.15,37.74 -42.14,37.74 -5.13,0 -10.99,-1.83 -14.65,-2.93l-8.07 32.98c6.96,2.56 15.02,4.03 25.28,4.03 42.52,0 63.76,-28.95 79.52,-72.19l74.02 -213.64zm98.08 206.31c49.84,0 76.58,-27.48 76.58,-61.2 0,-38.11 -31.14,-50.57 -59.35,-61.19 -21.99,-8.06 -42.88,-14.66 -42.88,-31.88 0,-13.93 10.27,-24.92 32.25,-24.92 16.86,0 31.15,7.33 45.07,17.59l19.79 -26.01c-16.48,-12.82 -38.47,-23.82 -65.59,-23.82 -44.34,0 -71.46,25.28 -71.46,59 0,34.07 30.79,48.37 57.53,58.62 21.99,8.43 44.71,16.49 44.71,34.81 0,15.39 -11.35,27.12 -35.54,27.12 -21.62,0 -39.21,-8.79 -57.16,-23.08l-19.79 27.12c19.42,16.12 48.01,27.85 75.86,27.85zm187.85 0c14.66,0 28.21,-3.67 39.58,-7.33l-7.69 -31.15c-5.87,2.57 -14.66,4.76 -21.62,4.76 -20.88,0 -29.32,-12.46 -29.32,-36.64l0 -102.24 52.4 0 0 -33.72 -52.4 0 0 -55.7 -35.54 0 -4.76 55.7 -31.14 2.2 0 31.52 29.31 0 0 101.87c0,42.51 15.76,70.72 61.2,70.72zm161.84 0c26.39,0 49.47,-8.8 68.16,-21.26l-14.66 -26.74c-14.66,9.52 -30.05,15.02 -48,15.02 -34.81,0 -59,-23.09 -62.29,-61.56l130.81 0c1.1,-4.76 1.83,-13.19 1.83,-21.26 0,-57.16 -28.59,-95.64 -82.08,-95.64 -47.27,0 -91.98,40.67 -91.98,106.27 0,66.32 43.61,105.17 98.2,105.17zm-57.16 -123.49c4.02,-35.54 26.38,-54.97 51.66,-54.97 29.32,0 45.07,20.15 45.07,54.97l-96.73 0zm187.12 118.73l41.78 0 0 -142.91c16.85,-18.33 31.87,-27.48 45.44,-27.48 23.08,0 33.71,13.92 33.71,48.73l0 121.66 42.14 0 0 -142.91c16.86,-18.33 31.52,-27.48 45.44,-27.48 22.73,0 33.72,13.92 33.72,48.73l0 121.66 42.14 0 0 -126.79c0,-51.3 -19.79,-79.88 -61.93,-79.88 -25.28,0 -45.8,15.75 -65.59,37.01 -8.8,-23.08 -25.66,-37.01 -55.7,-37.01 -24.92,0 -45.07,15.02 -62.29,33.34l-1.09 0 -3.29 -28.21 -34.45 0 0 201.54z"/>
  <path class="fil1" d="M5284.04 2359.48l177.39 -0.73c3.15,-77.69 0.22,-195.24 0.3,-277.77 0.04,-46.07 0.15,-92.1 0.3,-138.16 0.07,-23.29 0.15,-46.61 0.12,-69.9 -0.03,-22.15 -2.34,-47.2 -1.82,-67.93 2.39,1.49 61.87,86.2 68.88,95.94l138.12 193.44c12.08,15.54 23.84,31.05 35.37,47.52 5.73,8.17 11.99,16.79 17.87,24.39l18.8 23.14 36.41 -44.24c36.81,-45.58 70.34,-95.96 105.12,-142.03 22.78,-30.17 46.32,-64.05 68.27,-95.86 11.65,-16.88 22.63,-31.95 34.5,-48.41 5.97,-8.28 10.71,-14.56 17.18,-23.46 2.62,-3.6 5.79,-8.73 8.38,-12.73 3.93,-6.04 4.86,-9.14 10.41,-12.51 -4.17,133.64 -1.94,275.67 -2.49,410.58l0.31 137.87 176.88 0.12 0.48 -851.62 -171.12 0.04 -33.26 52.89c-35.68,49.96 -70.93,105.38 -105.2,156.51 -40.57,60.53 -84.04,120.28 -124.36,179.66l-12.91 19.51c-1.05,1.52 -0.89,1.53 -2.08,2.89 -3.42,3.93 -0.35,1.14 -3.78,3.43 -4.59,-11.17 -61.84,-91.41 -70.21,-103.75l-36.3 -51.46c-12.58,-17.31 -22.91,-34.88 -35.64,-52.11 -12.21,-16.52 -23.13,-34.52 -34.57,-51.57 -12.44,-18.57 -24.89,-34.44 -36.03,-51.79 -11.65,-18.16 -64.93,-91.57 -71.2,-104.22l-174.53 -0.12 0.39 852.42zm1899.26 -1.39l176.91 1.22c-1.51,-45.57 0.11,-91.16 -0.72,-136.91 -0.82,-45.09 -0.05,-91.35 0.2,-136.54 0.37,-69.21 2.36,-211.53 -2.09,-274.04 8.72,6.14 119.22,167.33 137.02,191.25 23.14,31.12 46.43,62.97 69.59,94.57 6.19,8.45 11.63,14.3 17.63,23.03 7.94,11.56 49.98,64.86 56.31,67.48 11.49,-14.04 23.9,-29.83 35.56,-45.28 11.53,-15.29 23.31,-32.06 34.76,-46.49 23.6,-29.72 45.19,-63.6 67.97,-94.61 34.03,-46.36 66.62,-95.97 100.03,-143.76l33.78 -47.84 -2.48 64.37c-0.41,23.3 -0.19,46.6 -0.4,69.9l-0.08 414.96 179.28 -0.54 -0.03 -851.55 -167.52 -0.09 -139.31 208.5c-21.07,32.7 -49.59,70.71 -70.31,103.57 -16.87,26.72 -44.74,62.71 -62.13,90.7 -3.38,5.45 -4.3,11.18 -9.46,13 -3.54,-5.06 -4.43,-8.08 -7.81,-13l-254.1 -376.56c-5.91,-8.98 -12.68,-15.83 -17.61,-26.01l-175.26 0.13 0.29 850.54zm-941.4 1.76c9.82,-3.36 162.13,-0.86 186.91,-0.78l52.79 -127.37c4.67,-10.58 15.37,-35.45 17.42,-44.23l379.47 0.93c6.62,13.62 11.29,28.44 17.32,43l36.99 84.9c4.13,9.06 13.54,35.37 18.72,42.48l179.84 0.21c-2.39,-9.71 -123.36,-292.48 -134.3,-320.05 -7.15,-18.03 -14.4,-35.39 -22.5,-53.91 -7.91,-18.07 -14.4,-34.87 -22.6,-53.8 -15.21,-35.13 -41.38,-103.87 -55.61,-132.73 -4.04,-8.2 -7.97,-17.39 -11.74,-25.74 -7.65,-16.98 -15.75,-36.52 -22.92,-53.46 -5.68,-13.46 -86.72,-204.14 -92.16,-211.6l-163.93 -0.41c-3.32,4.02 -18.89,43.43 -22.62,52.17 -22.89,53.66 -44.33,107.87 -68.4,160.66 -16.24,35.59 -29.5,70.77 -44.93,106.33 -16.39,37.79 -30.32,70.08 -45.27,107.37 -14.24,35.57 -30.28,70.29 -45.36,105.83 -15.23,35.88 -29.55,71.2 -45.41,107.36 -15.64,35.64 -30.03,71.93 -45.93,106.96l-34.59 79.31c-4.09,9.62 -8.62,17.39 -11.22,26.58zm-1038.42 -166.15c-153.53,-0.03 -307.1,0.85 -460.65,0.36 -37.97,-0.12 -62.29,-12.42 -82.08,-32.6 -21.54,-21.98 -33.33,-38.82 -33.03,-82.09 0.56,-76.81 0.37,-153.98 0.25,-230.81 -0.05,-35.59 -3.57,-74.16 8.31,-104.96 10.14,-26.31 31.89,-50.29 53.14,-62.14 25.07,-13.98 71.9,-9.98 105.44,-9.98 38.47,0.01 76.92,0.03 115.4,0.14 51.5,0.14 122.12,-1.54 172.13,0.71 13.44,0.6 16.35,-7.4 29.68,-26.76 12.55,-18.22 89.9,-129.07 93.16,-138.97 -158.11,1.94 -316.39,-0.89 -473.77,0.63 -29.19,0.28 -46.64,-0.54 -73.04,6.39 -21.37,5.6 -41.04,12.35 -57.92,21.78 -33.89,18.92 -66.81,44.24 -88.08,69.73 -21.25,25.47 -46.43,61.42 -57.8,101.52 -12.96,45.74 -8.54,98.87 -8.49,148.41 0.05,53.09 -0.37,106.17 -0.23,159.29 0.12,45.77 -4.59,107.9 9.76,147.39 26.83,73.85 77.7,131.8 148,167.41 43.04,21.8 73.01,29.86 129.43,29.73 105.61,-0.23 211.35,0.1 316.97,0.21 12.41,0.01 27.17,0.94 39.17,0.44 9.77,-0.4 10.05,-5.7 19.46,-19.98 10.71,-16.25 20.93,-31.21 32.21,-47.46 10.82,-15.6 21.44,-32.24 31.57,-48.02l31.02 -50.37zm1356.08 -154.73c47.06,-3.42 201.6,-1.39 255.75,-0.37l-64.65 -157.87c-10.74,-26.76 -22.46,-53.77 -31.82,-80.32 -5.04,-14.29 -10.86,-25.28 -16.06,-39.27 -3.06,-8.22 -11.81,-35.19 -15.88,-40.68 -3.75,4.31 -56.19,142.7 -62.61,159.78 -9.9,26.32 -21.41,52.24 -32.21,78.36 -5.07,12.25 -31.85,73.07 -32.51,80.38z"/>
  <path class="fil1" d="M8268.09 2191.66c-13.83,18.57 -29.67,44.25 -41.55,59.84 -5.09,6.68 -9.08,13.81 -13.91,20.32l-27.49 40.23c-4.56,6.92 -9.15,13.55 -13.8,20.41 -2.51,3.69 -4.1,6.95 -6.65,10.48 -2.3,3.17 -5.52,6.86 -7.12,10.58 24.93,0.92 52.33,-0.18 77.54,-0.27l234.15 0.05c77.7,-0.38 155.76,0.5 233.35,-0.02 27.57,-0.19 43.98,-3 66.74,-10.65 40.84,-13.71 70.77,-35.71 93.54,-58.55 9.33,-9.36 8.91,-8.11 17.92,-19.59 5.12,-6.54 12.15,-15.14 16.23,-21.89 37.73,-62.55 33.98,-115.63 32.4,-190.05 -1.06,-49.87 -11.64,-81.38 -36.29,-113.25 -23.76,-30.71 -50.85,-48.35 -85.5,-66.02 -36.52,-18.63 -78.27,-26.96 -126.77,-27.88 -50.9,-0.96 -101.96,-2.18 -152.89,-1.81 -25.78,0.19 -52.27,-0.03 -78.03,-0.75 -27.63,-0.77 -41.63,-8.59 -53.4,-22.93 -12.64,-15.4 -17.65,-30.39 -18.67,-55.46 -0.75,-18.35 -1.22,-52.84 5.26,-68.14 3.58,-8.45 10.28,-16.7 16.52,-20.88 10.66,-7.13 16.77,-6.86 32.56,-6.95 103.16,-0.69 208.02,0.41 311.41,0.47 25.37,0.02 53.26,1.32 78.26,0.27l79.12 -121.6c3.74,-5.87 24.53,-37.74 25.43,-41.6 -23.59,1.55 -53.36,0.6 -77.4,0.28 -75.61,-1.02 -156.4,0.08 -232.56,-0.07 -63.63,-0.11 -129.67,-0.65 -193.12,-0.07 -12.3,0.12 -25.76,-0.65 -37.3,1.06 -43.98,6.52 -73.23,21.51 -106.01,46.74 -13.31,10.25 -26.54,23.55 -37.89,37.24 -22.8,27.48 -41.05,59.28 -44.28,105.18 -2.14,30.38 -3.22,113.58 3.15,141.19 8.46,36.71 35.78,72.9 56.68,93.12 3.49,3.37 6.38,5.59 9.96,8.85 10.18,9.29 18.4,16.98 31.47,25.05 66.17,40.87 108.54,38.87 191.01,39.13 50.9,0.17 102.57,1.58 152.89,2 23.66,0.2 47.35,2.48 65.61,11.43 15.96,7.84 29.02,21.3 33.49,42.2 3.26,15.17 3.49,54.23 0.88,69.57 -3.81,22.35 -11.91,38.91 -25.36,49.04 -19.9,14.95 -30.96,14.48 -61.74,14.69 -77.12,0.52 -156.02,-0.34 -233.35,-0.36l-154.5 -0.61z"/>
  <path class="fil1" d="M9723.75 2179.72l-61.79 91.42c-3.24,4.76 -6.94,9 -9.55,12.79 5.88,6.3 66.06,37.65 77.16,42.45 28.53,12.31 57.85,26.6 94.77,27.06 81.66,0.99 163.7,-0.33 245.43,0.11 40.38,0.22 68.03,-9.53 95.02,-26.14 23.29,-14.32 45.99,-36.01 60.39,-59.32 16.52,-26.75 25.09,-54.64 26.06,-91.48 1,-37.4 2.03,-73.57 -11.98,-104.82 -12.96,-28.92 -30.71,-49.54 -52.89,-65.61 -23.6,-17.09 -48.53,-29.59 -84.25,-36.92 -33.63,-6.91 -70.74,-11.03 -107.98,-13.08 -19,-1.06 -99.2,-6.57 -113.11,-9.78 -47.69,-10.97 -54.53,-72.87 -31.58,-91.59 6.76,-5.51 13.6,-5.6 24.77,-5.71 20.64,-0.2 41.31,-0.03 61.96,0.01 62.81,0.11 115,-2.47 176.45,7.36l51.28 10.35c6.57,-6.28 27.34,-38.46 34.83,-50.01 3.44,-5.31 8.15,-11.68 11.89,-16.9 11.45,-16.03 22.28,-34.58 33.51,-51.27 2.99,-4.45 8.18,-14.2 11.47,-17.14l-49.25 -11.38c-17.67,-3.52 -33.15,-6.9 -51.39,-9.08 -37.78,-4.52 -81.41,-2.68 -120.6,-2.85 -40.77,-0.18 -81.55,0.01 -122.31,-0.03 -38.06,-0.03 -83.3,-2.79 -118.58,4.61 -30.52,6.4 -61.17,28.05 -76.09,43.77 -17.92,18.89 -35.3,42.19 -44.27,74.56 -8.58,30.94 -8.42,74.63 -2.6,106.69 5.8,31.94 25.08,59.71 42,76.69 78.48,78.76 169.5,75.54 278.1,84.81 17.45,1.49 38.5,2.6 54.71,6.17 9.83,2.16 13.92,4.99 19.58,10.32 17.72,16.67 22.53,46.06 17.69,67.6 -3.77,16.75 -12.2,26.97 -29.02,30.51 -13.83,2.91 -42.97,1.01 -58.63,0.95 -49.78,-0.19 -135.88,1.1 -178.95,-5.98 -29.46,-4.84 -44.75,-10.24 -70.42,-20.04 -7.55,-2.88 -14.77,-6.52 -21.81,-9.08z"/>
  <polygon class="fil1" points="9092.98,2551.95 9264.88,2551.97 9646.23,1711.17 9471.5,1711.64 9293.39,2107.05 9126.71,1709.24 8945.51,1709.1 9212.55,2286.51 "/>
  <g id="H_多层PS_xff0c_如需继续更新_xff0c_请勿解组">
   <path class="fil0" d="M1472.37 812.9l112.21 0 0 -56.05c9.83,-4.44 19.69,-8.77 29.59,-13l0 69.05 145.19 0 0 -122.7c9.83,-3.09 19.7,-6.08 29.59,-8.96l0 131.66 145.16 0 0 -166.47c9.83,-1.86 19.7,-3.62 29.59,-5.29l0 171.76 145.19 0 0 -187.25 29.59 0 0 187.25 13.51 0 0 29.59 -13.51 0 0 153.31 13.51 0 0 29.59 -13.51 0 0 153.31 13.51 0 0 29.59 -13.51 0 0 153.31 13.51 0 0 29.59 -13.51 0 0 153.31 13.51 0 0 29.59 -13.51 0 0 53.61c-9.88,-10.72 -19.74,-21.48 -29.59,-32.26l0 -21.36 -19.53 0 -27.15 -29.59 46.68 0 0 -153.31 -145.19 0 0 51.9c-10.4,-9.9 -19.91,-17.81 -29.59,-23.96l0 -27.94 -145.16 0 0 9.64 -29.59 -0.01 0 -9.63 -145.19 0 0 9.24c-8.96,0.18 -17.84,0.89 -26.39,2.88l-3.21 0.79 0 -12.91 -145.18 0 0 153.31 47.66 0c-3.64,8.32 -7.42,16.49 -10.71,25l-1.81 4.6 -35.14 0 0 85.3 -4.39 10.51c-6.65,15.66 -12.75,31.71 -20.19,47.02l-1.02 2.1 -15.73 37.97 -133.44 0 0 153.31 68.85 0c-1.06,2.72 -2.19,5.4 -3.41,7.7l-1.66 3.15 -7.82 18.74 -55.96 0 0 134.08 -0.84 1.9c-10.01,22.6 -19.44,45.44 -28.76,68.32l0 -21.4 -145.18 0 0 153.31 90.9 0 -2.48 6.2c-3.16,7.86 -7.33,15.47 -10.67,23.39l-77.75 0 0 153.3 15 0c-3.5,8.18 -7.06,16.34 -10.69,24.45l-2.26 5.14 -2.05 0 0 4.84c-8.92,21.35 -16.52,43.45 -26.48,64.11 -1.12,2.35 -2.15,4.69 -3.12,7.02l0 -75.98 -145.19 0 0 153.31 114.12 0c-4.15,10.1 -8.44,20.07 -12.96,29.59l-101.16 0 0 153.31 33.85 0c-1.71,3.96 -3.47,7.89 -5.33,11.79l-8.03 17.81 -20.49 0 0 48.18c-7.1,23.65 -7.03,47.47 0,70.07l0 35.07 17.29 0c9.59,13.78 20.89,23.29 34.18,29.59l-51.47 0 0 153.3 145.19 0 0 -142.65c5.84,-0.1 11.68,-0.16 17.52,-0.1l12.07 0.1 0 142.65 145.18 0 0 -142.85 29.59 -0.07 0 142.92 145.18 0 0 -142.71 23.92 -0.02 5.67 0.01 0 142.72 145.18 0 0 -153.3 -73.19 0c15.93,-7.33 28.14,-17.46 37.92,-29.59l35.28 0 0 -71.69c2.75,-5.77 5.45,-11.16 7.46,-17.14 1.01,-2.02 2.66,-5.2 4.1,-8.59 3.9,-9.19 8.38,-17.95 12.05,-27.33 1.88,-4.8 3.89,-9.56 5.98,-14.27l0 139.03 145.19 0 0 -153.31 -138.62 0c4.65,-9.83 9.43,-19.63 13.91,-29.59l124.71 0 0 -113.7 5.21 2.46c8.14,3.73 16.24,7.24 24.39,10.51l0 100.74 145.16 0 0 -69.51c9.83,0.69 19.71,0.89 29.59,0.67l0 68.83 145.19 0 0 -96.38c9.93,-3.8 19.97,-8.06 29.59,-12.5l0 108.87 13.51 0 0 29.59 -13.51 0 0 153.31 13.51 0 0 29.59 -13.51 0 0 153.3 13.51 0 0 29.59 -13.51 0 0 153.31 13.51 0 0 29.59 -13.51 0 0 153.31 13.51 0 0 29.59 -13.51 0 0 153.31 13.51 0 0 29.59 -13.51 0 0 125.08c-9.83,-0.59 -19.7,-1.25 -29.59,-1.96l0 -123.12 -145.19 0 0 106.94c-9.88,-1.71 -19.75,-3.54 -29.59,-5.47l0 -101.47 -145.16 0 0 66.38c-9.93,-2.73 -19.81,-5.49 -29.59,-8.27l0 -58.11 -145.19 0 0 9.06c-29.4,-12.05 -58.57,-25.16 -86.67,-38.65l57.08 0 0 -153.31 -145.18 0c0,58.86 21.88,121.22 -29.59,91.63l0 -91.63 -140.72 0c-13.23,-9.7 -26.25,-19.56 -39.1,-29.59l5.05 0 0 -153.31 -145.18 0 0 27.23 -30.69 -31.74c-7.69,-8.75 -13.78,-17.3 -21.1,-25.08l22.2 0 0 -153.31 -140.4 0c-12.16,-18.41 -23.77,-36.75 -34.38,-54.25l0 -128.64 -67.83 0c-4.69,-9.89 -9.26,-19.76 -13.74,-29.59l81.57 0 0 -153.31 -143.8 0c-11.23,-31.67 -21.53,-63.64 -30.97,-96.19l0 -86.72 -22.75 0c-2.31,-9.8 -4.55,-19.66 -6.72,-29.59l29.47 0 0 -153.31 -56.74 0 -1.42 -10.18c-0.88,-6.41 -1.7,-12.88 -2.48,-19.41l60.64 0 0 -153.3 -70.29 0c-0.13,-9.82 -0.17,-19.69 -0.14,-29.59l70.43 0 0 -153.31 -63.75 0c0.82,-9.88 1.71,-19.75 2.66,-29.59l61.09 0 0 -153.31 -40.1 0c1.79,-9.96 3.63,-19.83 5.56,-29.59l34.54 0 0 -139.3c3.53,-11.46 7.17,-22.63 10.93,-33.45 6.32,-18.21 12.47,-36.34 18.66,-54.37l0 44.21 145.18 0 0 -153.3 -104.54 0c4.18,-9.93 8.52,-19.81 13.08,-29.59l91.46 0 0 -153.31 -11.29 0 3.52 -6.02c6.88,-11.74 12.52,-19.72 19.24,-30.72l18.12 -27.22 0 34.36 145.19 0 0 -153.31 -60.05 0c7.73,-10.14 15.69,-20.09 24.43,-29.59l35.61 0 0 -38.82 29.59 -32.26 0 71.07 145.18 0 0 -153.31 -62.21 0c10.92,-10.1 21.96,-20.03 32.91,-29.59l29.3 0 0 -24.74c5.89,-4.79 11.7,-9.41 17.4,-13.81l12.19 -9.32 0 47.87 145.18 0 0 -146.72c20.65,-12.55 41.5,-24.61 62.56,-36.18zm636.52 2926.5l0 -153.31 -145.19 0 0 153.31 145.19 0zm-174.78 0l0 -153.31 -145.16 0 0 153.31 145.16 0zm-174.75 0l0 -153.31 -145.19 0 0 153.31 145.19 0zm349.53 -182.91l0 -153.31 -145.19 0 0 153.31 145.19 0zm-174.78 0l0 -153.31 -145.16 0 0 153.31 145.16 0zm-174.75 0l0 -153.31 -145.19 0 0 153.31 145.19 0zm-174.78 0l0 -153.31 -145.18 0 0 153.31 145.18 0zm-174.77 0l0 -153.31 -145.18 0 0 153.31 145.18 0zm699.08 -182.91l0 -153.31 -145.19 0 0 153.31 145.19 0zm-174.78 0l0 -153.31 -145.16 0 0 153.31 145.16 0zm-174.75 0l0 -153.31 -145.19 0 0 153.31 145.19 0zm-174.78 0l0 -153.31 -145.18 0 0 153.31 145.18 0zm-174.77 0l0 -153.31 -145.18 0 0 153.31 145.18 0zm-174.77 0l0 -153.31 -145.18 0 0 153.31 145.18 0zm873.85 -182.91l0 -153.3 -145.19 0 0 153.3 145.19 0zm-174.78 0l0 -153.3 -145.16 0 0 153.3 145.16 0zm-174.75 0l0 -153.3 -145.19 0 0 153.3 145.19 0zm349.53 -182.9l0 -153.31 -145.19 0 0 153.31 145.19 0zm-174.78 0l0 -153.31 -145.16 0 0 153.31 145.16 0zm-1048.62 -182.91l0 -153.31 -145.18 0 0 153.31 145.18 0zm0 -182.91l0 -153.31 -145.18 0 0 153.31 145.18 0zm174.78 -182.91l0 -153.3 -145.19 0 0 153.3 145.19 0zm-174.78 0l0 -153.3 -145.18 0 0 153.3 145.18 0zm174.78 -182.9l0 -153.31 -145.19 0 0 153.31 145.19 0zm-174.78 0l0 -153.31 -145.18 0 0 153.31 145.18 0zm349.55 -182.91l0 -153.31 -145.18 0 0 153.31 145.18 0zm-174.77 0l0 -153.31 -145.19 0 0 153.31 145.19 0zm-174.78 0l0 -153.31 -145.18 0 0 153.31 145.18 0zm349.55 -182.91l0 -153.31 -145.18 0 0 153.31 145.18 0zm-174.77 0l0 -153.31 -145.19 0 0 153.31 145.19 0zm-174.78 0l0 -153.31 -145.18 0 0 153.31 145.18 0zm524.32 -182.91l0 -153.3 -145.18 0 0 153.3 145.18 0zm-174.77 0l0 -153.3 -145.18 0 0 153.3 145.18 0zm-174.77 0l0 -153.3 -145.19 0 0 153.3 145.19 0zm349.54 -182.9l0 -153.31 -145.18 0 0 153.31 145.18 0zm-174.77 0l0 -153.31 -145.18 0 0 153.31 145.18 0zm-174.77 0l0 -153.31 -145.19 0 0 153.31 145.19 0zm1048.62 -182.91l0 -153.31 -145.19 0 0 153.31 145.19 0zm-174.78 0l0 -153.31 -145.16 0 0 153.31 145.16 0zm-174.75 0l0 -153.31 -145.19 0 0 153.31 145.19 0zm-174.78 0l0 -153.31 -145.18 0 0 153.31 145.18 0zm-174.77 0l0 -153.31 -145.18 0 0 153.31 145.18 0zm-174.77 0l0 -153.31 -145.18 0 0 153.31 145.18 0zm873.85 -182.91l0 -153.31 -145.19 0 0 153.31 145.19 0zm-174.78 0l0 -153.31 -145.16 0 0 153.31 145.16 0zm-174.75 0l0 -153.31 -145.19 0 0 153.31 145.19 0zm-174.78 0l0 -153.31 -145.18 0 0 153.31 145.18 0zm-174.77 0l0 -153.31 -145.18 0 0 153.31 145.18 0zm699.08 -182.91l0 -153.31 -145.19 0 0 153.31 145.19 0zm-174.78 0l0 -153.31 -145.16 0 0 153.31 145.16 0zm-174.75 0l0 -153.31 -145.19 0 0 153.31 145.19 0zm-174.78 0l0 -153.31 -145.18 0 0 153.31 145.18 0z"/>
   <path class="fil1" d="M3244.37 2389.18c0,9.11 8.45,23.6 11.77,30.54 7.61,15.95 7.35,19.92 21.42,12.26 12.28,-6.7 45.36,-21.72 50.66,-33.26 3.65,-7.95 -1.91,-26.61 -5.61,-33.11 -10.63,-18.6 -12.01,-15.16 -51.82,7.79 -7.36,4.25 -20.64,10.96 -26.42,15.77z"/>
   <path class="fil1" d="M3361.25 2492.79c-19.41,8.73 -36.5,18.83 -54.04,29.69 -5.1,3.15 -8.73,4.35 -6.29,12.62l13.3 29.4c2.33,4.24 4.3,11.41 10.64,9.56l52.54 -31.25c12.33,-8.7 9.58,-16.52 3.9,-29.73 -3.44,-8 -10.4,-24.61 -20.04,-20.28z"/>
   <path class="fil1" d="M3145.51 1939.59l-52.17 29.59c-9.74,6.35 -7.67,10.81 1.36,26.57 15.62,27.23 12.09,33.63 56.34,0.19 15.47,-11.69 31.44,-17.1 7.86,-49.94 -2.8,-3.91 -6.54,-9.66 -13.39,-6.4z"/>
   <path class="fil1" d="M1794.71 1696.16c-10.23,-7.05 -44.68,-17.77 -60.16,-24.39 -18.14,-7.75 -20.7,-10.78 -27.2,1.12 -7.92,14.49 -3.12,21.29 5.4,29.82 13.81,13.82 31.25,25.54 48.26,36.7 13.65,8.96 16.71,-1.76 22.62,-12 3.9,-6.75 12.11,-21.71 11.09,-31.25z"/>
   <path class="fil1" d="M1705.02 1868.27c3.92,-4.83 25.17,-33.71 23.5,-41.95 -1.03,-5.08 -31.93,-21.94 -39.24,-26.46 -7.4,-4.58 -21.13,-14.64 -31.14,-13.76 -6.37,7.74 -10.56,13.15 -14.21,25.19 -4.42,14.57 4.59,18.11 12.74,25.14 7.58,6.53 14.47,10.73 22.61,16.67 9.32,6.81 18.16,15.12 25.76,15.16z"/>
   <path class="fil1" d="M3375.94 2711.97c10.67,0.26 38.81,-16.86 50.7,-23.24 12.61,-6.77 30.94,-5.42 -2.14,-54.14 -7.03,-0.18 -18.62,7.42 -28.43,12.16 -46.05,22.3 -42.35,19.42 -34.3,37.93 4.94,11.34 7.86,17.28 14.17,27.29z"/>
   <path class="fil1" d="M1595.25 1917.25c-8.59,4.2 -10.29,12.93 -14.93,22.51 -7.37,15.2 -4.72,18.8 4.89,26.86 2.93,2.46 7.21,4.99 11.17,7.96 4.19,3.14 7.43,5.46 11.77,8.41 20.11,13.64 26.96,18.57 44.69,-15.21 8.54,-16.26 3.98,-19.4 -4.5,-25.96 -7.35,-5.69 -43.66,-29.18 -53.08,-24.57z"/>
   <path class="fil1" d="M3090.17 1813.38c-6.86,-0.46 -56.8,30.81 -65.49,38.22 -5.56,4.74 -0.72,9.8 1.38,14.3 3.97,8.56 10.38,19.31 16.09,26.54 6.91,8.73 18.45,-3.41 25.85,-8.37 9.56,-6.41 16.3,-11.42 24.66,-17.77 7.53,-5.69 19,-11.67 13.09,-26.2 -2.21,-5.41 -11.46,-21.66 -15.58,-26.72z"/>
   <path class="fil1" d="M3218.32 2285.12c10.02,1.33 42.22,-19.87 51.3,-26.86 10.84,-8.35 9.06,-13.66 4.65,-26.84 -2.08,-6.21 -10.25,-23.45 -15.14,-24.67 -7.35,-1.84 -32.55,13.27 -40.23,17.68 -12.32,7.09 -20.86,8.11 -18.65,19.27 3.03,15.28 9.44,30.13 18.08,41.43z"/>
   <path class="fil1" d="M2988.28 1767.39c4.68,-0.45 9.1,-4.11 12.94,-6.58l35.28 -25.12c13.47,-9.3 19.64,-14.45 5.17,-38.51 -2.84,-4.73 -4.87,-3.06 -14.96,0.55l-46.42 12.58c-20.59,4.3 -25.04,-0.28 -8.12,32.21 4,7.7 8.83,21.81 16.12,24.88z"/>
   <path class="fil1" d="M1475.37 2193.4c-8.02,3.94 -17.9,32.92 -18.5,38.23 -0.84,7.55 3.6,8.76 7.44,11.39 7.1,4.87 15.91,9.44 23.98,14.14 4.35,2.53 8.63,4.4 12.71,6.52 3.89,2.03 8.32,6.07 12.66,2.47 3.73,-3.1 11.03,-19.56 13.1,-24.18 11.18,-24.91 10.28,-23.61 -23.64,-39.8 -6.64,-3.18 -19.63,-12.75 -27.75,-8.77z"/>
   <path class="fil1" d="M1528.63 2053.36c-6.17,2.76 -11.13,16.93 -13.18,23.15 -6.62,20.14 14.1,28.03 32.24,38.16 6.73,3.76 19.92,12.37 26.6,5.98 3.79,-3.62 11.33,-16.39 13.62,-22.55 5.66,-15.22 2.33,-17.5 -7.97,-23.96 -7.16,-4.49 -42.42,-24.77 -51.32,-20.77z"/>
   <path class="fil1" d="M1413.6 2353.94c-5.83,3.08 -12.44,16.16 -12.77,24.85 -0.48,12.69 8.91,16.76 15.6,21.98 6.45,5.04 14.66,11.11 21.57,15.57 19.89,12.82 24.88,13.31 38.94,-19.03 6.69,-15.39 -0.75,-16.89 -11.33,-22.28 -8.91,-4.55 -14.83,-8.06 -24.68,-12.32 -5.49,-2.37 -21.93,-11.61 -27.31,-8.76z"/>
   <path class="fil1" d="M3213.07 2071.88c-6.96,-0.4 -38.42,20.97 -45.36,24.97 -9.08,5.24 -16.04,8.3 -9.25,21.65 15.19,29.88 11.15,30.92 34.94,15.44 17.87,-11.62 36.91,-18.35 31.67,-38.26 -2.95,-11.22 -5.49,-15.78 -12.01,-23.79z"/>
   <path class="fil1" d="M2759.02 1138.11c-1.05,2.28 -4.63,6.01 -6.53,8.05 -0.66,0.71 -0.89,1.16 -1.54,1.87l-22.28 25.41c-1.34,1.44 -2.29,2.46 -3.46,3.97 -0.99,1.26 -2.26,2.58 -3.34,3.78l-3.54 3.9c-2.44,2.64 -4.38,5.1 -6.83,7.71l-13.79 15.65c-2.69,3.17 -5.93,6.25 -8.48,9.48 -1.82,2.31 -6.15,6.6 -8.75,9.82 -2.2,2.7 -4.7,5.04 -6.81,7.76 -2.67,3.45 -5.89,6.45 -8.71,9.86 -4.98,6.05 -10.39,11.76 -15.5,17.64 -1.06,1.2 -2.16,2.77 -3.23,3.9 -0.86,0.92 -1.01,1.16 -1.72,2.01l-18.83 21.42c-0.65,0.73 -1.07,1.34 -1.63,2.1 -0.53,0.72 -1.17,1.33 -1.72,1.99l-20.34 23.64c-4.23,4.99 -24.7,29.43 -26.94,31.59 -2.09,2.02 -11.58,14.15 -13.22,16.21 -4.83,6.08 -7.14,11.79 -10.5,18.94 -0.89,1.88 -1.45,3.23 -2.33,5.1 -0.9,1.92 -1.96,2.66 -2.09,5.63 8.26,0.36 17.45,-0.04 25.83,-0.03l180.68 -0.03c51.57,0.1 103.13,-0.28 154.69,-0.1 3.3,0.01 49.3,0.26 51.4,-0.19l7.71 -38.82c2.47,-12.85 5.48,-25.56 7.88,-38.6 4.75,-25.95 10.92,-51.53 15.26,-77.78 -3.22,-0.33 -14.54,0.08 -17.78,0.57l-4.29 8.71c-6.44,12.74 -14.4,24.99 -23.38,36.08l-4.63 5.28c-0.77,0.7 -1.04,0.92 -1.67,1.74 -1.11,1.44 -2.01,2.23 -3.28,3.55 -6.47,6.79 -13.93,12.74 -22.17,17.45 -5.96,3.4 -12.62,5.08 -20.29,6.35 -15.61,2.57 -32.88,3.23 -48.97,4.28 -33.62,2.21 -67.56,3.16 -101.34,4.78 -16.79,0.81 -33.67,1.68 -50.47,2.33l-38.51 1.56c-2.03,0.09 -4.16,0.2 -6.22,0.32 -1.82,0.1 -4.17,0.58 -5.83,0.57 0.22,-1.14 2.29,-2.52 3.15,-3.38 3.36,-3.42 6.87,-6.77 10.02,-10.44 0.43,-0.5 1.23,-1.14 1.74,-1.66l6.64 -6.97c0.65,-0.66 0.92,-1.16 1.56,-1.86 1.37,-1.49 2.25,-2.38 3.43,-3.68 3.79,-4.16 9.35,-10.37 13.44,-14.13 1.18,-1.09 2.01,-2.38 3.21,-3.62l39.87 -42.8c0.97,-1.27 2.11,-2.44 3.19,-3.63 2.25,-2.52 4.27,-5 6.59,-7.34l31.1 -33.94c0.62,-0.66 1.03,-1.08 1.63,-1.78l14.6 -16.37c1.85,-1.77 3.2,-3.73 4.93,-5.59 6.1,-6.53 11.69,-13.52 17.81,-19.98l14.41 -16.56c0.82,-0.81 0.9,-1.12 1.55,-1.86l24.22 -27.49c1.48,-1.66 5.74,-5.9 6.36,-7.69 -3.62,-3.82 -15.44,-8.08 -27.45,-22.51l-14.13 -16.85c-0.98,-1.2 -1.81,-2.31 -2.75,-3.44 -1.93,-2.3 -3.7,-4.68 -5.63,-7.07 -3.66,-4.56 -7.64,-8.92 -11.18,-13.59l-11.2 -13.88c-1.92,-2.39 -3.69,-4.35 -5.57,-6.83 -1.77,-2.3 -3.73,-4.61 -5.46,-6.92 -3.53,-4.71 -7.64,-9.33 -11.29,-13.8 -1.97,-2.42 -3.68,-4.34 -5.62,-6.77 -1.83,-2.31 -3.68,-4.61 -5.5,-6.87 -2.62,-3.26 -18.8,-23.61 -22.41,-27.44 -1.94,-2.05 -3.64,-4.73 -5.59,-6.83 -4.95,-5.32 -12.01,-14.73 -17.02,-20.44 -6.21,-7.09 -13.49,-16.29 -19.78,-23.89 -2.46,-2.97 -14.12,-15.68 -14.5,-16.98 7.91,0.79 16.28,0.73 24.37,1.25 24.47,1.55 49.16,2.17 73.66,3.23 29.99,1.29 68.01,2.31 97.18,5.68 23.58,2.74 42.48,8.99 59.22,24.03l20.09 21.7c0.57,0.67 1.01,1.24 1.5,1.91l21.37 30.05c1.89,2.64 8.97,15.02 10.42,15.57l11.69 0.18c0.23,-1.39 -1.99,-14.45 -2.42,-16.88 -0.98,-5.66 -1.67,-11.56 -2.48,-17.31l-9.1 -69.62c-1.08,-8.72 -3.73,-27.88 -4.06,-35.68 -1.71,-0.56 -22.99,-0.24 -26.74,-0.27 -26.79,-0.22 -53.61,-1.02 -80.44,-1.2 -36.14,-0.25 -72.45,0.14 -108.59,-0.24 -54.31,-0.57 -108.73,0.12 -163.04,-0.08l-40.84 -0.04c-4.13,0.01 -9.26,-0.34 -13.2,-0.1 0.78,4.04 21.07,31.6 25.77,37.85 2.24,2.97 4.41,6.16 6.76,9.06 6.06,7.48 11.29,15.57 17.09,23.17l6.78 9.03c8.27,10.58 15.98,21.2 23.97,32.08l34.68 45.22c2.48,3.27 4.75,5.77 7.17,8.94 4.63,6.05 9.5,11.67 14.1,17.82l21.66 26.32c0.59,0.71 1.23,1.48 1.82,2.22l34.94 41.25c0.71,0.84 1.2,1.13 1.79,1.92l11.19 12.97c2.98,3.84 6.26,7.19 9.24,10.89 1.58,1.96 3.81,4.68 5.7,6.37 0.72,0.65 1.49,1.29 1.88,2.16z"/>
   <path class="fil1" d="M2749.17 3654.49c1.6,-3.04 43.77,-29.37 37.46,-68.23 -5.93,-36.48 -44.48,-61.15 -82.12,-49.74 -23.87,7.24 -41.03,30.71 -43.75,56.71 -7.33,70.13 75.5,102.31 134.29,83.6 47,-14.97 84.88,-56.9 106.06,-103.55 55.72,-122.71 61.64,-285.45 70.03,-418.81 4.04,-64.6 4.97,-199.47 85.96,-207.88 -0.35,3.15 -1.48,5.85 -2.31,8.82 -30.66,110.75 105.57,119.42 98.16,16.5 -1.78,-24.65 -16.57,-44.56 -38.75,-54.56 -46.5,-20.98 -100.83,2.25 -133.99,37.02 -103.98,109.02 -108.7,301.19 -117.35,443.9 -5.39,88.8 10.75,259.87 -113.69,256.21z"/>
   <path class="fil1" d="M1651.17 318.68l-64.64 -93.31c-7.59,-10.51 -16.31,-23.42 -23.19,-31.79 -5.38,-6.53 -6.81,-8.97 -11.3,-14.86 -41.92,-54.97 -39.02,-61.19 -71.28,-48.98 -65.51,24.79 -271.46,115.93 -321.29,148.04 -4.8,41.69 43.97,185.8 51.61,235.21 -37.5,11.5 -165.27,112.68 -206.47,143.19 -9.07,6.71 -21.68,18.31 -29.09,22.24 -9.8,-5.34 -19.19,-16.48 -29.44,-24.54l-94.13 -70.97c-35.37,-25.06 -48.31,-39.63 -69.04,-23.96 -10.83,8.18 -20.75,16.37 -29.06,25.28l-28.75 28.38c-9.54,8.61 -18.25,17.99 -27.52,27.05l-84.1 84.75c-17.74,17.11 -98.65,101.88 -104.26,121.04 9.54,16.49 23.26,27.64 34.27,42.49 15.75,21.24 33.63,39.73 52.42,59.61 6.47,6.86 9.96,14.81 16.57,22.83 9.89,12.01 29.15,27.92 37,39.06 -14.47,27.54 -117.53,160.1 -131.4,200.18 -15.61,-0.18 -91.33,-22.97 -113.73,-28.39 -26.99,-6.53 -97.3,-25.5 -121.64,-20.7 -14.13,21.6 -22.23,38.66 -34.5,65.3 -11.16,24.23 -22.73,43.83 -33.77,69.33 -10.08,23.29 -21.22,48.14 -32.63,70.43 -12.03,23.5 -20.15,47.52 -31.87,71.46 -26.49,54.12 -17.03,51.14 67.81,100.31 17.99,10.43 122.41,63.33 128.66,70.61l-32.25 105.97c-10.21,35.58 -21.55,77.11 -27.37,114.82 -63.38,11.5 -131.5,14.76 -194.93,27.86 -8.83,1.82 -51.97,8.04 -57.78,18.71 -5.35,16.45 -36.24,296.96 -33.96,312 4.59,30.27 82.34,43 110.97,52.65 38.83,13.1 79.97,19.44 118.79,32.91l3.8 1.48c3.6,1.69 3.23,1.61 5.23,3.24 4.16,22.4 2.34,83.82 3.69,112.02 1.82,38.3 7.41,75.27 8.98,112.82 -25.9,5.63 -91.88,37.53 -118.27,50.31 -18.93,9.17 -103.91,46.01 -110.4,60.96 -5.63,12.97 42.97,206.18 51.67,243.28 2.76,11.78 6.44,26.83 10.04,38.12 2.21,6.92 3.58,10.84 5.67,18.39l9.46 17.84c32.02,14.33 199.94,-6.62 247.18,-6.19 5.01,26.23 22.7,72.92 32.59,98.03 12.35,31.35 26.85,64.42 36.59,96.16 -0.35,0.51 -1,0.58 -1.17,1.43l-98.09 80.17c-18.51,14.62 -31.29,25.69 -49.42,41.1 -16.44,13.98 -32.68,26.73 -46.32,43.91 3.73,24.25 112.88,202.53 138.59,240.18 11.16,16.35 23.18,49.97 44.96,45.48 35,-7.24 98.71,-34.59 133.9,-49.26 18.59,-7.74 47.23,-21.51 65.73,-25.96l63.67 77.43c6.37,8.52 16.24,16.94 22.02,26.89 -15.35,19.39 -129.97,178.1 -129.58,190.99 3.37,8.41 16.08,21.96 22.55,28.98l26.24 25.68c5.46,4.94 9.04,6.36 14.17,11.81 46.5,49.36 98.69,91.3 149.38,135.61 13.17,11.52 44.59,44.32 62.26,36.49 4.87,-2.15 26.33,-17.14 31.07,-20.63l114.19 -92.52c10.74,-8.93 18.34,-17.42 26.72,-27.07 8.9,1.82 19.86,12.39 26.9,17.65 9.99,7.45 16.92,11.99 26.93,19.35 53.83,39.59 112.12,70.95 168.9,105.96 -2.09,33.88 -70.07,212.26 -61.4,231.5 33.24,32.47 231.15,104.79 290.07,130.88 27.7,12.26 51.49,31.93 71.46,5.71 39.27,-51.57 76.88,-102.28 113,-156.79 7.05,-10.65 14.45,-24.18 23.2,-32.59 18.7,5.05 38.05,12.6 58.33,18.31l121.76 29.61c20.56,4.07 47.21,6.23 66.5,11.21 15.82,69.82 21.81,150.75 41.14,217.12 15.31,52.59 37.15,37.41 83.52,37.58l240.07 1.87c15.77,0 44.45,1.58 58.83,-1.38 11.02,-2.27 11.75,-4.73 16.13,-14.87 3.42,-7.9 6.39,-15.9 8.7,-23.15 11.88,-37.25 46.29,-175.5 48.44,-211.57 32.62,-7.14 87.09,-11.93 124.25,-18.52 21.01,-3.72 40.95,-7.78 60.84,-11.97 16.54,-3.47 48.27,-13.82 60,-14.91 30.31,46.98 92.98,144.53 130.04,186.55 21.6,24.48 22.52,17.09 69.81,-2.36 34.78,-14.31 281.24,-104.82 289.16,-122.7 2.71,-30.3 -11.4,-83.22 -17.15,-112.92 -5.75,-29.62 -19.72,-78.47 -21.74,-106.38 26.62,-18.43 64.4,-33.72 92.02,-50.7 30.73,-18.9 60.88,-34.41 90.24,-53.49 48.8,-31.72 25.21,-32.96 82.22,13.53 13.33,10.86 27.62,20.01 41.51,30.74 14.16,10.94 69.75,60.61 83.76,58.64 15.47,-2.16 113.61,-99.72 134.53,-118.7 23.48,-21.31 124.33,-119.44 126.25,-128.8 -1.06,-14.39 -13.97,-28.89 -21.24,-39.7 -8.69,-12.92 -15.28,-25.86 -25.03,-38.02 -8.65,-10.79 -45.27,-58.52 -50.36,-72.59 15.01,-17.15 54.68,-57.01 64.12,-73.18 26.73,4.19 141.58,62.1 158.42,57.83 21.97,-16.2 66.52,-87.85 85.09,-117.54l77.95 -124.34c35.33,-55.36 20,-48.99 -56.22,-103.93 -57.87,-41.72 -118.76,-77.2 -175.99,-120.01 -34.38,-25.71 -81.14,-59.59 -119.39,-78.59 -46.71,-23.19 -58.9,12.18 -105.55,76.48l-109.04 141.99c-11.35,11.95 -15.21,18.34 -24.73,27.33l-73.05 75.13c-3.6,3.47 -9.04,9.95 -12.51,13.41 -4.96,4.92 -8.67,7.49 -13.59,12.47 -10.59,10.74 -14.31,13.42 -25,24.21 -45.16,45.64 -147.2,114.45 -198.16,150.2 -37.31,26.17 -81.18,50.51 -123.68,73.74 -84.01,45.9 -180.07,82.79 -277.33,114.84 -93.55,30.83 -219.3,54.25 -321.71,65.44 -123.93,13.53 -239.9,8.51 -363.53,-2.84 -109.07,-10.01 -218.36,-40.4 -318.24,-69.09 -92.12,-26.46 -193.44,-73.24 -275.1,-116.96 -90.15,-48.27 -166.49,-100.12 -238.28,-157.66 -31.33,-25.11 -77.06,-64.39 -105.33,-94.19l-48.53 -50.23c-8.27,-9.39 -14.68,-18.57 -22.78,-26.8 -59.99,-60.91 -147.77,-192.95 -186.67,-269.3 -103.53,-203.23 -164.57,-385.88 -197.17,-624.11 -31.67,-231.41 0.16,-542.28 69.1,-740.84 26.21,-75.49 49.44,-149.85 85.5,-219.94l34.32 -68.63c11.91,-23.29 24.04,-42.89 36.27,-63.83 6.86,-11.74 12.5,-19.72 19.23,-30.72l30.37 -45.63c3.33,-5.34 6.35,-10.06 10.37,-15.87l30.61 -42.79c19.42,-24.03 35.72,-49.11 56.46,-71.6l72.2 -78.7c45.17,-47.09 104.58,-103.38 155.45,-142.63 225.09,-173.67 480.74,-284.91 756.67,-323.11 246.46,-34.12 459.45,-11.53 688.23,50.99 118.92,32.5 239.45,83.38 345.1,143.64 74.54,42.51 110.67,64.32 180.71,117.35l233.52 214.98 33.7 39.39c4.66,6.76 6.98,7.76 12.03,13.91 4.59,5.59 6.37,9.72 11.1,15.17 5.35,6.17 7.58,7.62 12.07,13.96l21.45 28.29c30.7,34.84 76.36,122.36 107.95,143.19 19.41,12.8 53.57,-11.51 68.49,-22.12l232.44 -164.2c37.05,-26.16 87.65,-56.89 115.31,-85.31 -0.01,-18.61 -48.64,-93.56 -58.97,-111.96 -27.28,-48.6 -62.52,-117.86 -99.11,-158.46 -18.65,-20.69 -36.73,-6.06 -59.11,2.75 -29.43,11.58 -94.21,44.75 -119.29,48.9 -17.38,-27.36 -68.92,-72.25 -79.22,-95.54 8.44,-15.46 21.18,-29.24 30.56,-43.16l44.91 -65.17c48.41,-78.26 57.23,-64.3 -12.25,-122.3l-167.04 -138.06c-65.9,-55.34 -62.45,-39.91 -120.45,11.29l-93.36 85.54c-7.11,7.1 -5.06,7.47 -13.64,11.69l-51.29 -33c-18.96,-11.47 -37.32,-21.78 -55.25,-31.95 -35.65,-20.21 -80.14,-37.62 -112.83,-58.5 -2.12,-19.36 33.37,-158.62 38.42,-201.54 5.48,-46.63 -26.82,-45.91 -76.3,-65.47 -50.21,-19.85 -229.34,-94.82 -270.65,-97.83 -7.22,8.95 -12.15,13.34 -17.96,22.7l-114.95 187.73c-79.3,-25.73 -167.26,-34.97 -250.16,-44.18 -18.28,-2.03 -14.06,-12.9 -17.77,-34.54 -2.71,-15.79 -5.16,-30.17 -8.06,-45.91 -5.53,-29.97 -12.07,-58.53 -17.54,-87.18 -5.36,-28.13 -11.29,-65.4 -30.94,-75.16 -14.22,-7.07 -360.77,-5.69 -376,10.42 -9.24,9.79 -40.93,176.64 -47.75,215.2 -8.44,47.67 4.92,20.87 -105.93,46.94 -26.83,6.3 -52.75,12.3 -79.11,19.29 -19.93,5.3 -62.99,22.04 -79,22.77zm382.02 -223.85c-8.61,35.7 -32.59,218.49 -47.37,234.67 -4.5,4.92 -169,31.89 -191.08,37.76 -29.55,7.86 -163.32,49.32 -180.92,48.98l-33.83 -46.99c-11.55,-16.72 -21.88,-31.09 -32.78,-48.47 -10.56,-16.84 -21.97,-30.6 -33.47,-47.81 -7.51,-11.25 -23.93,-40.7 -33.36,-47.57l-167.68 76.89c-15.57,7.16 -45.42,19.07 -56.64,27.56 3.31,26.25 56.93,196.08 48.18,217.71 -3.13,7.73 -167.9,113.35 -190.14,131.2l-91.45 71.22c-35.81,30.49 -37.04,36.99 -64.08,21.29 -39.58,-23 -129.04,-102.75 -159.39,-111.97 -20.14,26.4 -63.07,69.29 -88.19,90.9 -7.31,6.29 -16.04,15.19 -22.58,21.57l-67.58 70.96c6.77,11.84 52.31,61.21 66.58,77.57 11.74,13.47 20.1,27.37 33.01,40.15 7.74,7.66 27.8,32.79 31.17,43.53 -2.73,6.93 -13.92,23.62 -18.66,30.07 -49.3,67.02 -95.29,132.52 -138.9,204.65 -48.05,79.46 -37.39,69.5 -113.06,51.64 -24.52,-5.79 -50.12,-12.26 -74.4,-18.95 -23.67,-6.52 -51.6,-16.93 -74.55,-21 -4.82,5.46 -38.63,85.91 -44.89,100.17 -9.15,20.87 -41.52,84.72 -44.88,102.45 35.86,16.43 177.37,93.74 200.93,110.26 -0.29,24.94 -30.96,107.13 -39.15,137.86 -12.77,47.93 -25.19,94.58 -35.57,143.92 -4.02,19.11 -6.31,58.14 -23.88,64.05 -14.71,4.95 -57.88,7.34 -76.07,9.08 -28.42,2.7 -132.56,8.35 -150.11,17.32l-21.58 212.91 224.53 55.94c3.28,25.79 1.68,135.51 4.47,178.94 2.2,34.31 16.35,146.41 13.75,170.33 -18.55,15.23 -181,78.11 -217.26,96.04 3.2,25.27 17.54,70.83 23.65,98.58 7.51,34.09 14.36,68.26 21.99,100.42 30.68,-0.38 222.07,-19.08 231.94,-13.25 9.22,5.77 12.51,26.69 15.88,38.46l41.08 118.54c10.97,25.33 19.47,50.85 30.13,76.16 7.54,17.93 28.05,61.18 30.99,78.12 -10,15.01 -116.21,93.74 -138.89,112.08 -8.72,7.05 -13.61,10.75 -22.62,18.74 -8.37,7.43 -16.05,11.94 -24.73,19.49 3.55,24.55 85.22,141.68 98.3,178.51 43.93,-9.76 165.43,-81.55 204.98,-83.36 14.72,24.39 87.8,111.26 110.43,136.97 12.31,14 45.63,51.03 49.83,65.78 -8.44,17.22 -129.37,182.59 -129.57,183.12 9.14,14.31 28.23,26.06 40.86,37.34 14.66,13.09 27.22,23.69 41.05,36.74 26.86,25.35 56.56,50.41 81.89,75.9 19.62,-10.05 89.96,-75.3 114.31,-94.8 13.6,-10.89 25.72,-19.7 39.13,-30.63 19.7,-16.07 21.76,-22.31 43.19,-6.66 13.94,10.18 27.05,19.64 40.76,28.76 60.4,40.15 105.64,72.96 169.41,110.89 113.68,67.62 98.73,24.66 63.03,164.5 -5.5,21.58 -31.04,101.32 -31.41,115.27l222.39 93.55c8.84,-3.22 56.6,-81.44 67.55,-98.24 20.85,-32 45.48,-72.61 68.57,-99.8 20.49,1.1 64.37,16.39 86.58,22.41 91.01,24.65 180.36,42.65 273.87,58.67 16.04,42.84 30,151.43 40.51,206.51l6.86 28.42c0.2,0.43 0.59,1.28 0.98,1.87l249.52 2.15c16,-74.45 29.44,-165.1 50.68,-236.13 15,-4.16 148.6,-17.13 188.45,-24.12l176.8 -36.86c32.32,44.69 66.44,97.91 96.53,147.01 9.47,15.46 21.3,39.97 30.26,50.83 17.93,-7.83 32.14,-17.09 52.06,-25.16 32.1,-13.01 151.99,-56.1 172.65,-69.26 -6.7,-61.52 -42.74,-149.93 -37.27,-213.63 19.18,-12.72 122.88,-64.71 160.89,-86.96 25.86,-15.14 53.1,-29.01 77.54,-45.49 14.05,-9.47 66.01,-44.84 78.29,-48.56 13.06,5.88 28.12,20.22 41.31,29.27 12.77,8.76 27.28,21.19 39.15,30.58 23.94,18.93 53.39,46.95 77.94,62.33 19.11,-12.39 97.25,-92.94 121.52,-115.36 9.54,-8.81 36.08,-30.27 41.47,-39.43 -10.37,-9.93 -16.61,-21.56 -25.29,-33.64l-25.1 -35.17c-17.04,-22.78 -39.33,-46.68 -50.9,-72.44 4,-11.93 23.74,-31.5 33.23,-42.72 33.8,-40.01 78.55,-78.83 107.53,-121.29 34.45,-2.34 119.07,50.47 156.39,54.2 27.07,-33.42 69.01,-118.18 104.29,-163.48l-2.6 -2.85c-2,-1.81 -1.34,-1.42 -4.33,-3.61l-26.06 -17.53c-42.1,-27.08 -223.23,-157.7 -242.07,-166.33l-36.28 51.86c-18.17,27.65 -39.32,50.45 -57.13,76.26 -12.83,18.6 -86,101.76 -102.94,118.7l-43.82 44.44c-29.22,29.29 -59.03,56.71 -92.4,83.91 -98.63,80.37 -202,152.9 -314.52,210.09 -556.53,282.87 -1234.81,254.83 -1757.12,-95.86 -52.63,-35.34 -102.49,-72.04 -149.47,-113.75 -32.2,-28.58 -62.57,-53.16 -90.48,-85.9 -12.59,-14.77 -31.03,-28.67 -44.05,-44.28 -24.35,-29.21 -48.64,-55.14 -71.16,-85.36 -4.48,-6.01 -4.37,-6.35 -10.36,-13.21 -66.28,-75.85 -157.31,-247.02 -198.23,-338.79 -104.16,-233.66 -157.2,-497.71 -155.13,-762.99 2.54,-325 96.34,-667.91 255.98,-924.89 34.64,-55.76 72.18,-107.51 110.18,-159.94l19.34 -25.06c22.8,-22.52 38.98,-49.33 61,-72.04l87.74 -88.87c7.09,-7.07 16.74,-13.62 23.6,-20.51l172.3 -137.62c167.83,-112.29 279.65,-162.61 471.78,-225.22 177.12,-57.72 411.2,-78.89 606.91,-61.85 204.86,17.83 376.52,64.89 552.73,135.48 165.96,66.48 315.25,167.27 434.73,266.06l46.35 41.71c39.36,33.63 99.73,92.57 130.89,134.28 15.51,20.75 33.89,36.94 59.52,73.64l38.87 49.95c12.4,17.57 42.16,72.58 53.61,82.51 21.9,-15.39 45.4,-33.91 67.79,-50.42 23.12,-17.03 49.24,-33.13 70.61,-50.47 38.22,-30.99 106.04,-70.53 139.09,-100.91l-43.64 -80.62c-7.83,-14.88 -14.2,-24.1 -22.19,-38.31 -5.92,-10.54 -16.28,-31.22 -23.57,-39.65 -23.08,2.22 -112.58,46.72 -147.7,58.58 -23.68,8 -25.06,-10.98 -37.71,-25.97l-32.66 -37.68c-17.49,-21.16 -99.37,-103.21 -99.15,-117.84 0.22,-14.5 105.23,-148.28 114.43,-170.4 -17.28,-7.48 -65.55,-52.67 -84.51,-67.11l-62.92 -53.52c-5.94,-5.33 -14.4,-10.56 -20.51,-17.46 -11.88,5.78 -86.98,80.47 -108.3,96.57 -69.73,52.64 -37.51,68.09 -119.68,12.15 -58.26,-39.67 -129.35,-77.65 -193.68,-111.37 -23.9,-12.52 -44.77,-21.37 -65.91,-35.43 1.52,-49.71 38.92,-178.1 44.23,-222.11 -44.57,-9.53 -117.71,-45.28 -166.04,-62.64 -17.15,-6.17 -41.75,-17.53 -56.99,-21.44 -19.72,34.79 -39.47,68.47 -61.55,103.6 -8.31,13.2 -59.34,96.37 -67.05,99.3 -20.04,0.26 -67.21,-15.02 -89.06,-20.2 -29.95,-7.09 -62.47,-12.44 -92.98,-17.59 -26.44,-4.46 -183.78,-20.78 -191.85,-26.09 -8.27,-13.37 -40.55,-197.31 -46.82,-229.63 -30.38,6.16 -89.09,2.17 -123.77,2.87 -41.76,0.84 -83.58,0.73 -125.34,0.81z"/>
   <path class="fil1" d="M1598.43 2327.2c0.12,47.2 9.7,99.23 29.92,141.61 2.46,5.17 5.1,8.71 7.42,13.72 6.38,13.78 14.68,28.06 23.85,40.17 16.68,21.99 16.01,24.5 38.6,47.65 5.97,6.13 13.88,14.29 21.63,20.81 11.3,9.5 23.78,19.19 36.47,27.26 13.01,8.27 26.55,16.79 41.15,23.49 20.15,9.25 39.26,16.82 62.15,22.4 25.87,6.32 45.22,8.89 73.45,11.78 32.19,3.29 66.95,-1.21 97.08,-7.06 6.16,-1.19 10.76,-3.1 16.99,-4.11 22.03,-3.6 68.46,-23.94 89.86,-37.07 8.56,-5.26 18.71,-10.27 26.79,-15.56 42.57,-27.91 80.29,-62.35 119.07,-95.32l67.04 -60.4c6.92,-7.59 14.45,-15 22.83,-20.63 6.81,1.93 77.62,65.44 88.44,73.85l92.43 69.95c16.98,10.79 30.89,20.82 49.89,30.65 9.45,4.89 17.09,10.44 25.97,14.07 9.85,4.02 18.57,8.44 29.1,12.59 19.24,7.57 38.84,15.34 61.22,19.97 51.28,10.61 106.21,11.24 157.46,-0.46 67.03,-15.31 114.66,-49.14 163.41,-94.03 25.75,-23.7 57.31,-69.53 72.01,-101.64 13.61,-29.73 13.42,-30.03 22.92,-64.57 14,-50.93 10.21,-140.96 -7.32,-189.93 -3.49,-9.76 -6.85,-19.68 -10.51,-30.18 -6.17,-17.69 -19.28,-37.11 -27.53,-53.39 -2.84,-5.62 -4.54,-7.35 -8.09,-12.05 -27.56,-36.51 -31.46,-42.92 -68.69,-72.76 -49.67,-39.82 -114.23,-60.05 -181.67,-60.23 -74.84,-0.2 -138.42,32.96 -191.97,77.6 -32.77,27.31 -64.91,56.73 -95.03,86.64l-92.43 89.3c-14.93,15.26 -30.15,30.58 -45.29,46.09 -3.56,3.64 -7.92,6.44 -11.54,10.71 -6.6,7.79 -75.11,72.99 -80.54,77.83 -4.53,4.04 -6.97,7.04 -11.28,11.03 -27.28,25.27 -54.39,52.85 -82.61,76.7 -16.45,13.9 -32.51,27.82 -49.53,40.76 -55.96,42.59 -113.5,81.73 -190.63,81.68 -85.82,-0.06 -136.64,-46.45 -186.37,-103.25 -34.53,-39.44 -57.82,-100.51 -56.72,-154.23 1,-48.84 20.27,-93.31 44.2,-124.03 13.22,-16.98 23.47,-27.8 41.8,-41.11 35.93,-26.08 84.27,-40.81 129.86,-32.42 6.27,1.15 11.27,1.33 16.43,3.31 4.88,1.88 10.8,3.12 16.11,5.07 20.22,7.46 38.79,16.08 57.33,26.2 20.03,10.93 54.16,38.45 72.72,52.33 8.62,6.45 15.23,11.65 23.31,18.13l22.05 19.29c8.86,7.33 13.84,11.68 22.64,18.82 3.33,2.71 20.17,17.24 21.28,21.05 -4.6,7.53 -64.49,59.57 -72.4,66.6 -46.24,41.09 -109.22,93.96 -173.5,104.18 -23.27,3.7 -42.38,2.73 -64.39,-0.77 -5.58,-0.89 -8.74,-2.23 -13.32,-3.24 -12.4,-2.71 -33.89,-10.18 -43.01,-9.87 0.16,22.23 42.64,41.6 60.43,47.18 30.01,9.42 64.1,6.08 93.56,-1.23 34.22,-8.48 79.89,-33.02 106.73,-54.35 9.83,-7.81 20.79,-15.88 30.08,-24.07l90.99 -79.96c10.8,-10.57 24.51,-21.37 35.7,-32.33 4.45,-4.36 8.13,-8.6 13.05,-13.5 9.45,-9.39 18.39,-16.23 28.16,-26.03 5.79,-5.81 52.82,-46.87 55.52,-53.25 -1.06,-2.34 -0.39,-1.06 -2.05,-2.67l-9.17 -6.7c-34.73,-26.36 -66.83,-56.82 -100.28,-84.45 -7.36,-6.09 -13.76,-12.95 -20.75,-18.44 -15.83,-12.42 -29.18,-23.84 -45.99,-36.86 -24.33,-18.84 -48.91,-33.68 -75.15,-47.93 -17.61,-9.55 -38.59,-17.62 -57.87,-24.6 -11.26,-4.08 -20.38,-6.15 -31.66,-9.32 -10.24,-2.89 -23.92,-5.26 -34.52,-6.44 -84.74,-9.46 -169.38,14.82 -234.27,65.39 -34.08,26.57 -60.31,54.86 -84.2,90.26l-16.14 27.53c-2.57,4.88 -4.6,9.02 -7.12,14.16 -23.67,48.25 -35.71,101.43 -35.56,162.68zm890.91 -2.15c1.25,2.92 52.74,45.87 59.82,51.67 20.21,16.55 42.71,34.2 63.32,49.09 10.75,7.76 22.34,15.48 33.25,23 14.25,9.83 36.97,22.31 53.56,30.23 6.55,3.13 11.85,6.1 19.56,8.93 13.67,5.02 28.67,9.8 43.73,12.59 26.34,4.88 20.66,5.47 50.26,5.07 17.32,-0.24 34.77,-2.16 49.12,-6.72 26.97,-8.55 50.26,-21.4 71.54,-40.67 37.81,-34.25 69.56,-90.42 64.16,-162.19 -2.5,-33.18 -12.96,-62.56 -27.21,-84.98 -23.05,-36.31 -49.24,-63.64 -88.46,-80.37 -12.62,-5.39 -28.12,-11.58 -42.88,-13.08 -49.15,-4.99 -94.97,1.92 -135.77,27.58 -16.67,10.49 -34.4,21.37 -50.08,33.6 -11.63,9.07 -37.71,29.79 -46.61,38.37l-29.71 26.61c-9.62,8.75 -20.03,18.54 -29.5,26.73 -5.47,4.73 -9.95,9.16 -14.34,13.32 -9.28,8.8 -42.15,37.28 -43.75,41.21z"/>
   <path class="fil1" d="M3686.54 2966.96c10.69,0 17.28,0.84 28.99,-7.03 27.45,-18.47 5.93,-54.18 -4.2,-76.03 -12.1,-26.09 -20.58,-48.97 -31.39,-75.54l-16.27 -37.01c-14.96,-39.21 -33.22,-74.4 -46.75,-113.74l-31.17 -75.27c-11.18,-25.04 -19.7,-51.17 -31.01,-75.76 -14.58,-31.7 -31.28,-81.17 -45.52,-114.7 -2.68,-6.32 -4.46,-12.26 -7.16,-18.49l-15.51 -37.96c-5.19,-13.82 -10.6,-24.39 -15.32,-38.15l-15.22 -38.08c-12.69,-25.86 -26.23,-67.1 -38.5,-94.91 -5.65,-12.8 -9.24,-25.56 -15.09,-38.43 -5.27,-11.62 -10.94,-26.45 -15.13,-38.55 -5.06,-14.62 -24.39,-59.27 -31.26,-75.24l-30.51 -76.46c-9.86,-26.05 -20.13,-49.29 -30.8,-76.06l-22.99 -56.8c-2.45,-6.35 -5.55,-11.56 -8.14,-18.71l-30.45 -75.31c-5.52,-12.5 -9.5,-26 -15.19,-38.16 -7.1,-15.14 -12.41,-31.84 -19.18,-47.02 -1.46,-3.28 -2.22,-6.8 -3.64,-10.48l-31.07 -75.58c-7.08,-17.48 -12.45,-45.33 -34.99,-45.38 -22.4,-0.06 -250.06,-0.65 -262.03,1.38 -12.47,2.11 -21.91,15.01 -29.54,23.33 -16.45,17.91 -32.78,37 -50.06,56.3l-24.07 28.03c-8.41,10.88 -16.38,18.79 -24.54,28.72 -4.33,5.25 -7.86,8.5 -12.43,14.12 -4.42,5.43 -7.33,8.82 -12.53,14.05 -7.99,8.04 -16.9,19.79 -24.46,28.68 -35.14,41.28 -76.09,85.39 -111.87,127.48 -44.71,52.59 -92.37,102.49 -137.12,155.36 -7.71,9.11 -16.3,20.2 -24.49,28.69 -4.5,4.65 -8.26,8.59 -12.7,13.86 -3.12,3.71 -9.09,13.05 -11.58,15.05 -6.24,-1.44 -12.21,-13.75 -16.25,-18.84 -5.31,-6.68 -9.97,-12.56 -16.08,-20.09 -20.99,-25.88 -44.32,-52.14 -67.23,-76.37 -5.52,-5.84 -10.54,-13.26 -16.75,-19.38 -6.13,-6.04 -11.37,-11.74 -17.73,-18.46 -22.63,-23.9 -44.99,-50.63 -68.48,-75.06 -12.99,-13.5 -31.31,-35.13 -43.64,-46.75 -3.67,-3.46 -5.29,-6.16 -8.68,-9.41 -6.58,-6.34 -11.19,-13.12 -16.9,-19.2 -47.43,-50.36 -91.91,-100.11 -138.22,-149.95l-34.66 -36.56c-6.24,-6.33 -10.6,-11.67 -17.7,-18.46 -5.89,-5.64 -12.91,-11.52 -18.85,-17.24 -15.2,-14.65 -20.19,-21.44 -50.35,-21.61l-213.25 -0.06c-46.22,0.01 -45.66,-4.28 -54.1,16.71 -7.27,18.09 -14.65,33.21 -21.93,50.58 -3.47,8.28 -6.32,17.19 -9.91,25.54 -3.77,8.76 -7.54,16.55 -10.97,25.43 -6.62,17.12 -14.76,34.52 -21.42,51.22 -6.48,16.25 -13.54,34.28 -20.88,51.56 -7.25,17.09 -13.54,33.58 -21.85,50.67l-31.66 76.37c-3.32,8.57 -7.5,16.86 -11.03,25.13 -7.25,17.01 -14.75,33.97 -21.53,51.26 -3.05,7.76 -7.58,16.62 -10.96,25.18 -3.46,8.74 -6.34,17.13 -10.77,25.52l-21.1 50.47c-7.85,17.11 -14.8,34.64 -21.74,50.77 -1.83,4.25 -2.6,9.25 -4.82,13.5 -6.36,12.18 -10.78,25.89 -16.25,38.22 -15.01,33.89 -28.38,67.61 -42.31,101.88 -7.17,17.66 -14.01,34.59 -21.41,51.16 -7.02,15.71 -13.88,33.85 -20.72,50.87 -3.76,9.34 -7.73,16.32 -11.28,24.85 -3.75,9.03 -6.78,17.44 -10.19,26.2 -2.96,7.58 -7.28,16.34 -10.64,24.63 -17.41,43.01 -34.23,85.91 -53.2,128.28 -10.98,24.54 -19.99,51.77 -31.72,76.11 -3.72,7.73 -6.56,17.25 -10.33,26.02 -10.72,24.94 -32.63,80.52 -43.65,101.67l-43.68 100.48c-7.97,17.06 -13.87,33.51 -21.96,50.52l-22.56 50.09c-6.02,15.12 -4.54,28.25 4.69,41.81 3.27,4.8 5.65,4.85 12.12,5.71 18.76,2.5 48.87,0.64 69.47,0.85 71.05,0.71 142.18,-0.36 213.24,-0.14 47.24,0.15 94.56,0.22 141.81,0.16 43.54,-0.05 52.32,4.51 68.46,-39.21 1.72,-4.67 3.24,-8.84 4.98,-13.48 3.38,-9.04 7.36,-14.23 10.83,-24.34 1.52,-4.43 4.07,-8.91 5.58,-12.46 3.74,-8.82 7.83,-16.61 11.22,-25.26 10.05,-25.7 23.52,-49.18 33.64,-75.18 6.66,-17.11 15.05,-33.46 22.67,-49.75 3.74,-7.98 6.88,-17.01 10.7,-25.6 7.59,-16.98 15.06,-33.12 21.95,-49.62 8.1,-19.4 20.56,-45.67 26.79,-64.19 2.27,-6.77 0.29,-8.53 -3.72,-13.12 -5.48,-6.29 -11.64,-12.77 -17.26,-18.89 -5.68,-6.18 -11.69,-11.87 -17.32,-18.78 -3.52,-4.32 -13.15,-17.92 -16.75,-18.89 -2.08,3.07 -3.3,6.87 -5.09,10.31 -1.79,3.43 -4,6.95 -5.85,11.15 -3.87,8.76 -7.92,15.61 -11.36,22.72 -7.41,15.31 -14.12,30.01 -21.5,45.89l-64.86 138.02c-6.79,14.24 -62.08,135.05 -65.71,136.9 -2.6,1.33 -254.88,-0.8 -282.74,0.68 -11.37,0.61 -29.89,1.26 -40.96,0.68l17 -29.26c20.41,-40.91 38.17,-85.41 59.24,-126.4 5.31,-10.34 10.54,-20.97 15.32,-31.55 5.94,-13.13 10.03,-19.63 7.24,-36.56 -1.93,-11.73 1.3,-30.9 7.8,-37.43 2.09,-2.1 11.51,-4.93 15.14,-7.03 15.34,-8.89 24.36,-21.83 31.67,-38.66 12.46,-28.68 -30.07,-38.42 -17.09,-67.97 3.33,-7.58 13.16,-20.1 20.82,-24.92 10.46,-6.55 21.91,8.35 34.17,-10.26 8.76,-13.28 31.32,-52.13 21.31,-66.84 -3.59,-5.28 -6.14,-7.8 -10.25,-12.12 -3.75,-3.95 -8.89,-8.32 -9,-14.47 -0.25,-13.37 9.64,-21.53 19.83,-27.1 22.63,-12.34 35.35,-20.01 47.95,-44.54 7.65,-14.9 9.65,-19.92 -4.53,-29.66 -9.86,-6.78 -24.35,-5.65 -14.98,-25.75 12.37,-26.54 34.22,-17.15 50.3,-43.07 5.62,-9.08 11.25,-20.62 15.84,-29.96 23.97,-48.75 -6.41,-53.46 0.4,-71.88 10.85,-29.34 29.75,-18.63 46.96,-45.37 5.46,-8.48 11.77,-21.42 16.36,-30.6 4.98,-9.95 13.77,-21.54 11.08,-36.04 -2.18,-11.78 -16.34,-16.18 -23.93,-22.55 -1.27,-9.9 2.29,-16.67 7.07,-21.42 9.8,-9.74 26.16,-12.88 35.54,-21.77 16.88,-15.99 39.18,-45.49 47.17,-68.87 7.96,-23.28 -41.88,-26.43 -11.94,-53.11 17.5,-15.59 43.48,-15.68 61.08,-55.88 12.31,-28.11 -13.02,-31.57 -13.59,-40.26 -0.35,-5.15 20.68,-26.02 25.29,-31.52 6.88,-8.21 14.55,-26.13 20.23,-37.35 4.16,-8.24 22.84,-49.36 25.95,-59.34l6.81 -22.25c9.24,-1.66 163.53,-0.42 180.54,-0.16 14.82,0.24 11.68,1.35 25.31,15.03 4,4.02 6.74,6.97 10.32,10.92l78.09 85.67c6.63,7.04 12.76,13.71 19.25,21.18l49.2 52.79c3.77,3.61 7.23,6.62 10.62,10.63l78.44 84.27c14.13,14.4 26.23,28.6 39.44,42.44l119.24 126.32c11.22,12.57 27.13,29.45 39.3,42.59 11.33,12.25 69.12,73.18 74.48,85.02l1.47 3.09c11.01,-2.91 49.35,-45.42 61.12,-57.09 26.8,-26.58 50.74,-55.74 76.91,-82.56 6.79,-6.95 12.35,-14.66 18.84,-21.58 5.55,-5.92 13.81,-14.15 18.62,-20.77 4.8,-6.6 12.65,-14 18.45,-20.81l37.77 -41.99c11.86,-13.69 26.87,-30.03 37.53,-42.28 13.4,-15.39 24.29,-25.42 37.91,-41.8 10.99,-13.2 25.04,-27.31 37.45,-41.23 20.55,-23.02 35.67,-42.01 55.7,-63.45 10.92,-11.68 19.29,-23.26 27.41,-32.13 3.69,-4.02 6.66,-6.43 9.95,-10.2 13.67,-15.64 64.77,-73.65 73.7,-85.91 7.8,-10.71 10.75,-7.33 32.76,-7.45 26.26,-0.14 52.53,-0.06 78.79,-0.11 25.31,-0.05 53.94,-1.14 78.86,0.16 7.07,17.87 11.02,35.35 18.92,52.6 6.56,14.32 15.97,38.66 21.89,49.77 4.1,7.7 8.11,14.22 12.74,22.41 4.22,7.49 -0.11,30.89 14.95,57.74 4.65,8.3 8.26,15.42 19.64,16.23 10.23,0.72 21.92,0.47 31.22,3.79 8.2,2.91 16.78,9.82 17.44,19.16 1.15,16.09 -38.82,11.2 -36.4,36.44 1.27,13.23 26.27,76.18 42.67,83.6 5.27,2.39 8.79,2.3 15.54,2.5 -1.39,4.67 -5.37,2.98 -8.76,5.34 -0.13,17.87 2.55,22.23 8.22,35.96 4.33,10.5 8.27,20.87 13.07,30.74 5.81,11.94 13.47,13.18 24.58,18.91 10.18,5.25 19.81,11.39 18.38,26.28 -6.2,5.22 -15.35,6.57 -21.47,11.1 -0.3,18.53 18.59,50.9 30.59,63.48 7.18,7.53 19.93,11.83 19.56,27.53 -0.36,15.29 -13.29,11.68 -4.72,37.79 6.38,19.44 21.57,50.39 34.98,60.03 9.2,6.62 19.71,11.03 29.31,17.3 8.39,5.48 20.56,15.67 20.71,28.52 -7.94,-0.82 -16.86,-3.79 -25.16,-1.09 -5.66,1.84 -12.81,6.87 -12.2,14.36 0.45,5.55 15.46,31.58 18.47,36 12.42,18.25 26.5,23.92 38.77,41.99 18.69,27.51 -1.67,20.65 -7.26,35.61 -7.08,18.94 12.52,52.54 24.24,63.17 18.65,16.92 35.56,17.62 50.2,37.93 3.02,4.2 7.29,15.89 6.79,23.05 -5.04,14.2 -60.57,-2.28 -7.59,78.87 8.65,13.25 22.54,16.4 26.45,22.35 6.24,9.52 12.06,25.07 13.47,36.55 1.53,12.47 1.23,18.34 5.67,28.84l19.44 46.67c3.82,7.14 6.46,15.2 10.04,23.03 13.64,29.85 25.28,61.99 40.6,91.84 1.94,3.79 3.38,7.47 5.48,11.59 2.13,4.19 4.98,6.63 6.39,11.04 -26.48,0.78 -56.22,-0.39 -83.15,-0.47 -27.66,-0.07 -55.31,-0.07 -82.98,-0.03 -17.01,0.03 -152.29,1.53 -165.55,-0.23 -9.16,-14.21 -44.32,-99.15 -58.01,-126.53 -6.82,-13.64 -13.05,-28 -19.99,-41.86l-19.91 -42.05c-11.01,-25.85 -27.83,-57.29 -40.05,-83.78 -3.29,-7.15 -7.14,-13.06 -10.17,-20.78 -3.2,-8.17 -5.72,-12.93 -9.86,-20.75 -8.94,-0.69 -25.27,19.57 -31.23,25.76 -37.22,38.66 -32.57,19.18 -17.15,59.22 3.48,9.07 8.51,18.86 12.29,27.8 7.88,18.63 42.7,97.24 50.56,111.89l51.1 112.32c7.9,18.67 16.91,36 26.93,55.18 14.11,27.03 19.02,26.96 53.52,26.91l406.24 -0.08z"/>
  </g>
 </g>
</svg>
