<?xml version="1.0" encoding="UTF-8"?>
<!DOCTYPE svg PUBLIC "-//W3C//DTD SVG 1.1//EN" "http://www.w3.org/Graphics/SVG/1.1/DTD/svg11.dtd">
<!-- Creator: CorelDRAW -->
<svg xmlns="http://www.w3.org/2000/svg" xml:space="preserve" width="41.2711mm" height="45.9004mm" version="1.1" style="shape-rendering:geometricPrecision; text-rendering:geometricPrecision; image-rendering:optimizeQuality; fill-rule:evenodd; clip-rule:evenodd"
viewBox="0 0 1616.15 1797.43"
 xmlns:xlink="http://www.w3.org/1999/xlink"
 xmlns:xodm="http://www.corel.com/coreldraw/odm/2003">
 <defs>
  <style type="text/css">
   <![CDATA[
    .fil1 {fill:#332C2B}
    .fil0 {fill:#332C2B;fill-rule:nonzero}
   ]]>
  </style>
 </defs>
 <g id="圖層_x0020_1">
  <metadata id="CorelCorpID_0Corel-Layer"/>
  <g id="H_多层PS_xff0c_如需继续更新_xff0c_请勿解组">
   <path class="fil0" d="M584.49 322.7l44.54 0 0 -22.25c3.9,-1.76 7.82,-3.48 11.75,-5.16l0 27.41 57.63 0 0 -48.71c3.9,-1.23 7.82,-2.41 11.75,-3.56l0 52.27 57.62 0 0 -66.09c3.9,-0.74 7.82,-1.44 11.75,-2.1l0 68.18 57.63 0 0 -74.33 11.75 0 0 74.33 5.36 0 0 11.75 -5.36 0 0 60.86 5.36 0 0 11.75 -5.36 0 0 60.86 5.36 0 0 11.75 -5.36 0 0 60.86 5.36 0 0 11.75 -5.36 0 0 60.86 5.36 0 0 11.75 -5.36 0 0 21.28c-3.92,-4.26 -7.84,-8.53 -11.75,-12.81l0 -8.48 -7.75 0 -10.78 -11.75 18.53 0 0 -60.86 -57.63 0 0 20.6c-4.13,-3.93 -7.9,-7.07 -11.75,-9.51l0 -11.09 -57.62 0 0 3.83 -11.75 -0 0 -3.82 -57.63 0 0 3.67c-3.56,0.07 -7.08,0.35 -10.48,1.14l-1.27 0.31 0 -5.13 -57.63 0 0 60.86 18.92 0c-1.44,3.3 -2.94,6.55 -4.25,9.92l-0.72 1.82 -13.95 0 0 33.86 -1.74 4.17c-2.64,6.22 -5.06,12.59 -8.02,18.67l-0.4 0.83 -6.25 15.07 -52.97 0 0 60.86 27.33 0c-0.42,1.08 -0.87,2.14 -1.35,3.06l-0.66 1.25 -3.11 7.44 -22.22 0 0 53.23 -0.33 0.76c-3.97,8.97 -7.72,18.04 -11.41,27.12l0 -8.49 -57.63 0 0 60.86 36.09 0 -0.98 2.46c-1.25,3.12 -2.91,6.14 -4.24,9.28l-30.87 0 0 60.86 5.96 0c-1.39,3.25 -2.8,6.48 -4.24,9.71l-0.9 2.04 -0.81 0 0 1.92c-3.54,8.47 -6.56,17.25 -10.51,25.45 -0.45,0.93 -0.85,1.86 -1.24,2.79l0 -30.16 -57.63 0 0 60.86 45.3 0c-1.65,4.01 -3.35,7.97 -5.15,11.75l-40.16 0 0 60.86 13.44 0c-0.68,1.57 -1.38,3.13 -2.11,4.68l-3.19 7.07 -8.13 0 0 19.13c-2.82,9.39 -2.79,18.84 0,27.81l0 13.92 6.86 0c3.81,5.47 8.29,9.25 13.57,11.75l-20.43 0 0 60.86 57.63 0 0 -56.63c2.32,-0.04 4.64,-0.06 6.95,-0.04l4.79 0.04 0 56.63 57.63 0 0 -56.71 11.75 -0.03 0 56.73 57.63 0 0 -56.65 9.5 -0.01 2.25 0 0 56.66 57.63 0 0 -60.86 -29.06 0c6.32,-2.91 11.17,-6.93 15.05,-11.75l14 0 0 -28.46c1.09,-2.29 2.16,-4.43 2.96,-6.81 0.4,-0.8 1.06,-2.06 1.63,-3.41 1.55,-3.65 3.33,-7.13 4.79,-10.85 0.75,-1.91 1.54,-3.79 2.37,-5.67l0 55.19 57.63 0 0 -60.86 -55.03 0c1.84,-3.9 3.74,-7.79 5.52,-11.75l49.51 0 0 -45.14 2.07 0.98c3.23,1.48 6.45,2.87 9.68,4.17l0 39.99 57.62 0 0 -27.59c3.9,0.27 7.82,0.35 11.75,0.27l0 27.33 57.63 0 0 -38.26c3.94,-1.51 7.93,-3.2 11.75,-4.96l0 43.22 5.36 0 0 11.75 -5.36 0 0 60.86 5.36 0 0 11.75 -5.36 0 0 60.86 5.36 0 0 11.75 -5.36 0 0 60.86 5.36 0 0 11.75 -5.36 0 0 60.86 5.36 0 0 11.75 -5.36 0 0 60.86 5.36 0 0 11.75 -5.36 0 0 49.65c-3.9,-0.23 -7.82,-0.5 -11.75,-0.78l0 -48.87 -57.63 0 0 42.45c-3.92,-0.68 -7.84,-1.41 -11.75,-2.17l0 -40.28 -57.62 0 0 26.35c-3.94,-1.08 -7.86,-2.18 -11.75,-3.28l0 -23.07 -57.63 0 0 3.59c-11.67,-4.79 -23.25,-9.99 -34.41,-15.34l22.66 0 0 -60.86 -57.63 0c0,23.37 8.69,48.12 -11.75,36.38l0 -36.38 -55.86 0c-5.25,-3.85 -10.42,-7.77 -15.52,-11.75l2 0 0 -60.86 -57.63 0 0 10.81 -12.18 -12.6c-3.05,-3.47 -5.47,-6.87 -8.38,-9.95l8.81 0 0 -60.86 -55.74 0c-4.83,-7.31 -9.44,-14.59 -13.65,-21.54l0 -51.07 -26.93 0c-1.86,-3.93 -3.68,-7.84 -5.45,-11.75l32.38 0 0 -60.86 -57.08 0c-4.46,-12.57 -8.55,-25.26 -12.3,-38.18l0 -34.43 -9.03 0c-0.92,-3.89 -1.81,-7.8 -2.67,-11.75l11.7 0 0 -60.86 -22.52 0 -0.56 -4.04c-0.35,-2.55 -0.67,-5.11 -0.98,-7.71l24.07 0 0 -60.86 -27.9 0c-0.05,-3.9 -0.07,-7.82 -0.05,-11.75l27.96 0 0 -60.86 -25.31 0c0.33,-3.92 0.68,-7.84 1.06,-11.75l24.25 0 0 -60.86 -15.92 0c0.71,-3.96 1.44,-7.87 2.21,-11.75l13.71 0 0 -55.3c1.4,-4.55 2.85,-8.98 4.34,-13.28 2.51,-7.23 4.95,-14.43 7.41,-21.58l0 17.55 57.63 0 0 -60.86 -41.5 0c1.66,-3.94 3.38,-7.86 5.19,-11.75l36.31 0 0 -60.86 -4.48 0 1.4 -2.39c2.73,-4.66 4.97,-7.83 7.64,-12.19l7.19 -10.8 0 13.64 57.63 0 0 -60.86 -23.84 0c3.07,-4.03 6.23,-7.98 9.7,-11.75l14.14 0 0 -15.41 11.75 -12.81 0 28.21 57.63 0 0 -60.86 -24.69 0c4.33,-4.01 8.72,-7.95 13.06,-11.75l11.63 0 0 -9.82c2.34,-1.9 4.64,-3.74 6.91,-5.48l4.84 -3.7 0 19 57.63 0 0 -58.25c8.2,-4.98 16.47,-9.77 24.83,-14.36zm252.68 1161.74l0 -60.86 -57.63 0 0 60.86 57.63 0zm-69.38 0l0 -60.86 -57.62 0 0 60.86 57.62 0zm-69.37 0l0 -60.86 -57.63 0 0 60.86 57.63 0zm138.75 -72.61l0 -60.86 -57.63 0 0 60.86 57.63 0zm-69.38 0l0 -60.86 -57.62 0 0 60.86 57.62 0zm-69.37 0l0 -60.86 -57.63 0 0 60.86 57.63 0zm-69.38 0l0 -60.86 -57.63 0 0 60.86 57.63 0zm-69.38 0l0 -60.86 -57.63 0 0 60.86 57.63 0zm277.51 -72.61l0 -60.86 -57.63 0 0 60.86 57.63 0zm-69.38 0l0 -60.86 -57.62 0 0 60.86 57.62 0zm-69.37 0l0 -60.86 -57.63 0 0 60.86 57.63 0zm-69.38 0l0 -60.86 -57.63 0 0 60.86 57.63 0zm-69.38 0l0 -60.86 -57.63 0 0 60.86 57.63 0zm-69.38 0l0 -60.86 -57.63 0 0 60.86 57.63 0zm346.89 -72.61l0 -60.86 -57.63 0 0 60.86 57.63 0zm-69.38 0l0 -60.86 -57.62 0 0 60.86 57.62 0zm-69.37 0l0 -60.86 -57.63 0 0 60.86 57.63 0zm138.75 -72.61l0 -60.86 -57.63 0 0 60.86 57.63 0zm-69.38 0l0 -60.86 -57.62 0 0 60.86 57.62 0zm-416.27 -72.61l0 -60.86 -57.63 0 0 60.86 57.63 0zm0 -72.61l0 -60.86 -57.63 0 0 60.86 57.63 0zm69.38 -72.61l0 -60.86 -57.63 0 0 60.86 57.63 0zm-69.38 0l0 -60.86 -57.63 0 0 60.86 57.63 0zm69.38 -72.61l0 -60.86 -57.63 0 0 60.86 57.63 0zm-69.38 0l0 -60.86 -57.63 0 0 60.86 57.63 0zm138.76 -72.61l0 -60.86 -57.63 0 0 60.86 57.63 0zm-69.38 0l0 -60.86 -57.63 0 0 60.86 57.63 0zm-69.38 0l0 -60.86 -57.63 0 0 60.86 57.63 0zm138.76 -72.61l0 -60.86 -57.63 0 0 60.86 57.63 0zm-69.38 0l0 -60.86 -57.63 0 0 60.86 57.63 0zm-69.38 0l0 -60.86 -57.63 0 0 60.86 57.63 0zm208.14 -72.61l0 -60.86 -57.63 0 0 60.86 57.63 0zm-69.38 0l0 -60.86 -57.63 0 0 60.86 57.63 0zm-69.38 0l0 -60.86 -57.63 0 0 60.86 57.63 0zm138.76 -72.61l0 -60.86 -57.63 0 0 60.86 57.63 0zm-69.38 0l0 -60.86 -57.63 0 0 60.86 57.63 0zm-69.38 0l0 -60.86 -57.63 0 0 60.86 57.63 0zm416.27 -72.61l0 -60.86 -57.63 0 0 60.86 57.63 0zm-69.38 0l0 -60.86 -57.62 0 0 60.86 57.62 0zm-69.37 0l0 -60.86 -57.63 0 0 60.86 57.63 0zm-69.38 0l0 -60.86 -57.63 0 0 60.86 57.63 0zm-69.38 0l0 -60.86 -57.63 0 0 60.86 57.63 0zm-69.38 0l0 -60.86 -57.63 0 0 60.86 57.63 0zm346.89 -72.61l0 -60.86 -57.63 0 0 60.86 57.63 0zm-69.38 0l0 -60.86 -57.62 0 0 60.86 57.62 0zm-69.37 0l0 -60.86 -57.63 0 0 60.86 57.63 0zm-69.38 0l0 -60.86 -57.63 0 0 60.86 57.63 0zm-69.38 0l0 -60.86 -57.63 0 0 60.86 57.63 0zm277.51 -72.61l0 -60.86 -57.63 0 0 60.86 57.63 0zm-69.38 0l0 -60.86 -57.62 0 0 60.86 57.62 0zm-69.37 0l0 -60.86 -57.63 0 0 60.86 57.63 0zm-69.38 0l0 -60.86 -57.63 0 0 60.86 57.63 0z"/>
   <path class="fil1" d="M1287.92 948.44c0,3.62 3.36,9.37 4.67,12.12 3.02,6.33 2.92,7.91 8.5,4.87 4.88,-2.66 18.01,-8.62 20.11,-13.2 1.45,-3.16 -0.76,-10.57 -2.23,-13.14 -4.22,-7.39 -4.77,-6.02 -20.57,3.09 -2.92,1.69 -8.19,4.35 -10.49,6.26z"/>
   <path class="fil1" d="M1334.32 989.57c-7.71,3.47 -14.49,7.48 -21.45,11.79 -2.02,1.25 -3.47,1.73 -2.5,5.01l5.28 11.67c0.92,1.68 1.71,4.53 4.23,3.79l20.86 -12.41c4.89,-3.45 3.8,-6.56 1.55,-11.8 -1.37,-3.18 -4.13,-9.77 -7.96,-8.05z"/>
   <path class="fil1" d="M1248.68 769.96l-20.71 11.75c-3.87,2.52 -3.05,4.29 0.54,10.55 6.2,10.81 4.8,13.35 22.36,0.07 6.14,-4.64 12.48,-6.79 3.12,-19.83 -1.11,-1.55 -2.6,-3.83 -5.31,-2.54z"/>
   <path class="fil1" d="M712.45 673.33c-4.06,-2.8 -17.74,-7.05 -23.88,-9.68 -7.2,-3.08 -8.22,-4.28 -10.8,0.45 -3.14,5.75 -1.24,8.45 2.14,11.84 5.48,5.49 12.41,10.14 19.16,14.57 5.42,3.56 6.63,-0.7 8.98,-4.76 1.55,-2.68 4.81,-8.62 4.4,-12.41z"/>
   <path class="fil1" d="M676.85 741.65c1.55,-1.92 9.99,-13.38 9.33,-16.65 -0.41,-2.02 -12.68,-8.71 -15.58,-10.5 -2.94,-1.82 -8.39,-5.81 -12.36,-5.46 -2.53,3.07 -4.19,5.22 -5.64,10 -1.75,5.78 1.82,7.19 5.06,9.98 3.01,2.59 5.74,4.26 8.98,6.62 3.7,2.7 7.21,6 10.22,6.02z"/>
   <path class="fil1" d="M1340.16 1076.58c4.24,0.1 15.41,-6.69 20.13,-9.23 5,-2.69 12.28,-2.15 -0.85,-21.49 -2.79,-0.07 -7.39,2.94 -11.29,4.83 -18.28,8.85 -16.81,7.71 -13.62,15.06 1.96,4.5 3.12,6.86 5.62,10.83z"/>
   <path class="fil1" d="M633.27 761.09c-3.41,1.67 -4.08,5.13 -5.93,8.94 -2.93,6.03 -1.87,7.46 1.94,10.66 1.16,0.98 2.86,1.98 4.43,3.16 1.66,1.25 2.95,2.17 4.67,3.34 7.98,5.42 10.7,7.37 17.74,-6.04 3.39,-6.45 1.58,-7.7 -1.79,-10.31 -2.92,-2.26 -17.33,-11.58 -21.07,-9.75z"/>
   <path class="fil1" d="M1226.71 719.86c-2.72,-0.18 -22.55,12.23 -26,15.17 -2.21,1.88 -0.29,3.89 0.55,5.68 1.57,3.4 4.12,7.67 6.39,10.53 2.74,3.47 7.32,-1.35 10.26,-3.32 3.79,-2.55 6.47,-4.53 9.79,-7.05 2.99,-2.26 7.54,-4.63 5.2,-10.4 -0.88,-2.15 -4.55,-8.6 -6.18,-10.61z"/>
   <path class="fil1" d="M1277.58 907.13c3.98,0.53 16.76,-7.89 20.36,-10.66 4.3,-3.31 3.59,-5.42 1.84,-10.66 -0.83,-2.47 -4.07,-9.31 -6.01,-9.79 -2.92,-0.73 -12.92,5.27 -15.97,7.02 -4.89,2.82 -8.28,3.22 -7.41,7.65 1.2,6.07 3.75,11.96 7.18,16.45z"/>
   <path class="fil1" d="M1186.26 701.6c1.86,-0.18 3.61,-1.63 5.14,-2.61l14 -9.97c5.35,-3.69 7.8,-5.74 2.05,-15.29 -1.13,-1.88 -1.93,-1.21 -5.94,0.22l-18.43 4.99c-8.17,1.71 -9.94,-0.11 -3.22,12.79 1.59,3.06 3.5,8.66 6.4,9.88z"/>
   <path class="fil1" d="M585.68 870.72c-3.18,1.56 -7.11,13.07 -7.34,15.18 -0.33,3 1.43,3.48 2.95,4.52 2.82,1.93 6.32,3.75 9.52,5.61 1.73,1 3.43,1.75 5.04,2.59 1.54,0.81 3.3,2.41 5.02,0.98 1.48,-1.23 4.38,-7.77 5.2,-9.6 4.44,-9.89 4.08,-9.37 -9.38,-15.8 -2.64,-1.26 -7.79,-5.06 -11.02,-3.48z"/>
   <path class="fil1" d="M606.82 815.13c-2.45,1.1 -4.42,6.72 -5.23,9.19 -2.63,8 5.6,11.13 12.8,15.15 2.67,1.49 7.91,4.91 10.56,2.37 1.5,-1.44 4.5,-6.51 5.41,-8.95 2.25,-6.04 0.92,-6.95 -3.16,-9.51 -2.84,-1.78 -16.84,-9.83 -20.37,-8.25z"/>
   <path class="fil1" d="M561.16 934.45c-2.31,1.22 -4.94,6.41 -5.07,9.86 -0.19,5.04 3.54,6.65 6.19,8.72 2.56,2 5.82,4.41 8.56,6.18 7.89,5.09 9.88,5.28 15.46,-7.55 2.66,-6.11 -0.3,-6.7 -4.5,-8.85 -3.54,-1.81 -5.89,-3.2 -9.8,-4.89 -2.18,-0.94 -8.71,-4.61 -10.84,-3.48z"/>
   <path class="fil1" d="M1275.5 822.48c-2.76,-0.16 -15.25,8.33 -18.01,9.91 -3.6,2.08 -6.37,3.29 -3.67,8.6 6.03,11.86 4.43,12.27 13.87,6.13 7.1,-4.61 14.65,-7.28 12.57,-15.19 -1.17,-4.45 -2.18,-6.27 -4.77,-9.45z"/>
   <path class="fil1" d="M1095.25 451.8c-0.42,0.9 -1.84,2.38 -2.59,3.2 -0.26,0.28 -0.35,0.46 -0.61,0.74l-8.85 10.09c-0.53,0.57 -0.91,0.98 -1.37,1.57 -0.39,0.5 -0.9,1.03 -1.33,1.5l-1.41 1.55c-0.97,1.05 -1.74,2.02 -2.71,3.06l-5.47 6.21c-1.07,1.26 -2.35,2.48 -3.37,3.76 -0.72,0.92 -2.44,2.62 -3.47,3.9 -0.87,1.07 -1.86,2 -2.7,3.08 -1.06,1.37 -2.34,2.56 -3.46,3.92 -1.98,2.4 -4.12,4.67 -6.15,7 -0.42,0.48 -0.86,1.1 -1.28,1.55 -0.34,0.36 -0.4,0.46 -0.68,0.8l-7.48 8.5c-0.26,0.29 -0.42,0.53 -0.65,0.83 -0.21,0.29 -0.47,0.53 -0.68,0.79l-8.07 9.38c-1.68,1.98 -9.81,11.68 -10.69,12.54 -0.83,0.8 -4.6,5.62 -5.25,6.43 -1.92,2.41 -2.84,4.68 -4.17,7.52 -0.35,0.75 -0.58,1.28 -0.92,2.02 -0.36,0.76 -0.78,1.06 -0.83,2.24 3.28,0.14 6.93,-0.02 10.25,-0.01l71.72 -0.01c20.47,0.04 40.94,-0.11 61.41,-0.04 1.31,0 19.57,0.1 20.41,-0.07l3.06 -15.41c0.98,-5.1 2.18,-10.15 3.13,-15.32 1.89,-10.3 4.33,-20.46 6.06,-30.88 -1.28,-0.13 -5.77,0.03 -7.06,0.23l-1.7 3.46c-2.56,5.06 -5.72,9.92 -9.28,14.32l-1.84 2.1c-0.31,0.28 -0.41,0.36 -0.66,0.69 -0.44,0.57 -0.8,0.89 -1.3,1.41 -2.57,2.69 -5.53,5.06 -8.8,6.93 -2.37,1.35 -5.01,2.02 -8.06,2.52 -6.2,1.02 -13.05,1.28 -19.44,1.7 -13.35,0.88 -26.82,1.25 -40.23,1.9 -6.66,0.32 -13.37,0.67 -20.03,0.92l-15.29 0.62c-0.81,0.04 -1.65,0.08 -2.47,0.13 -0.72,0.04 -1.66,0.23 -2.31,0.23 0.09,-0.45 0.91,-1 1.25,-1.34 1.34,-1.36 2.73,-2.69 3.98,-4.14 0.17,-0.2 0.49,-0.45 0.69,-0.66l2.64 -2.77c0.26,-0.26 0.36,-0.46 0.62,-0.74 0.54,-0.59 0.89,-0.94 1.36,-1.46 1.5,-1.65 3.71,-4.12 5.33,-5.61 0.47,-0.43 0.8,-0.94 1.27,-1.44l15.83 -16.99c0.38,-0.51 0.84,-0.97 1.26,-1.44 0.89,-1 1.7,-1.99 2.62,-2.91l12.35 -13.47c0.25,-0.26 0.41,-0.43 0.65,-0.7l5.8 -6.5c0.74,-0.7 1.27,-1.48 1.96,-2.22 2.42,-2.59 4.64,-5.37 7.07,-7.93l5.72 -6.57c0.33,-0.32 0.36,-0.45 0.61,-0.74l9.61 -10.91c0.59,-0.66 2.28,-2.34 2.53,-3.05 -1.44,-1.52 -6.13,-3.21 -10.9,-8.94l-5.61 -6.69c-0.39,-0.48 -0.72,-0.92 -1.09,-1.37 -0.77,-0.91 -1.47,-1.86 -2.24,-2.81 -1.45,-1.81 -3.03,-3.54 -4.44,-5.4l-4.44 -5.51c-0.76,-0.95 -1.46,-1.73 -2.21,-2.71 -0.7,-0.91 -1.48,-1.83 -2.17,-2.75 -1.4,-1.87 -3.03,-3.7 -4.48,-5.48 -0.78,-0.96 -1.46,-1.72 -2.23,-2.69 -0.73,-0.92 -1.46,-1.83 -2.19,-2.73 -1.04,-1.29 -7.46,-9.37 -8.9,-10.89 -0.77,-0.81 -1.44,-1.88 -2.22,-2.71 -1.97,-2.11 -4.77,-5.85 -6.75,-8.11 -2.47,-2.82 -5.36,-6.47 -7.85,-9.48 -0.98,-1.18 -5.6,-6.23 -5.76,-6.74 3.14,0.31 6.46,0.29 9.67,0.5 9.72,0.61 19.52,0.86 29.24,1.28 11.9,0.51 27,0.92 38.58,2.26 9.36,1.09 16.86,3.57 23.51,9.54l7.98 8.62c0.23,0.27 0.4,0.49 0.6,0.76l8.48 11.93c0.75,1.05 3.56,5.96 4.14,6.18l4.64 0.07c0.09,-0.55 -0.79,-5.74 -0.96,-6.7 -0.39,-2.25 -0.66,-4.59 -0.98,-6.87l-3.61 -27.64c-0.43,-3.46 -1.48,-11.07 -1.61,-14.16 -0.68,-0.22 -9.13,-0.09 -10.62,-0.11 -10.64,-0.09 -21.28,-0.4 -31.93,-0.48 -14.35,-0.1 -28.76,0.05 -43.11,-0.09 -21.56,-0.23 -43.16,0.05 -64.72,-0.03l-16.21 -0.02c-1.64,0 -3.68,-0.13 -5.24,-0.04 0.31,1.61 8.36,12.54 10.23,15.03 0.89,1.18 1.75,2.44 2.68,3.59 2.4,2.97 4.48,6.18 6.78,9.2l2.69 3.58c3.28,4.2 6.34,8.42 9.52,12.73l13.77 17.95c0.98,1.3 1.89,2.29 2.85,3.55 1.84,2.4 3.77,4.63 5.6,7.07l8.6 10.45c0.23,0.28 0.49,0.59 0.72,0.88l13.87 16.38c0.28,0.33 0.48,0.45 0.71,0.76l4.44 5.15c1.18,1.52 2.49,2.85 3.67,4.32 0.63,0.78 1.51,1.86 2.26,2.53 0.29,0.26 0.59,0.51 0.75,0.86z"/>
   <path class="fil1" d="M1091.34 1450.73c0.63,-1.21 17.38,-11.66 14.87,-27.09 -2.35,-14.48 -17.66,-24.27 -32.6,-19.74 -9.48,2.87 -16.29,12.19 -17.37,22.51 -2.91,27.84 29.97,40.62 53.31,33.19 18.66,-5.94 33.7,-22.59 42.1,-41.11 22.12,-48.71 24.47,-113.32 27.8,-166.26 1.61,-25.65 1.97,-79.18 34.12,-82.52 -0.14,1.25 -0.59,2.32 -0.92,3.5 -12.17,43.96 41.91,47.41 38.97,6.55 -0.7,-9.79 -6.58,-17.69 -15.38,-21.66 -18.46,-8.33 -40.02,0.89 -53.19,14.7 -41.28,43.28 -43.15,119.57 -46.58,176.22 -2.14,35.25 4.27,103.16 -45.13,101.71z"/>
   <path class="fil1" d="M655.47 126.51l-25.66 -37.04c-3.01,-4.17 -6.47,-9.3 -9.21,-12.62 -2.13,-2.59 -2.7,-3.56 -4.49,-5.9 -16.64,-21.82 -15.49,-24.29 -28.3,-19.44 -26.01,9.84 -107.76,46.02 -127.54,58.77 -1.91,16.55 17.45,73.76 20.49,93.37 -14.88,4.57 -65.61,44.73 -81.96,56.84 -3.6,2.66 -8.61,7.27 -11.55,8.83 -3.89,-2.12 -7.62,-6.54 -11.69,-9.74l-37.37 -28.17c-14.04,-9.95 -19.18,-15.73 -27.41,-9.51 -4.3,3.25 -8.24,6.5 -11.54,10.04l-11.41 11.27c-3.79,3.42 -7.24,7.14 -10.93,10.74l-33.39 33.64c-7.04,6.79 -39.16,40.44 -41.39,48.05 3.79,6.55 9.23,10.97 13.6,16.87 6.25,8.43 13.35,15.77 20.81,23.66 2.57,2.72 3.96,5.88 6.58,9.06 3.93,4.77 11.57,11.08 14.69,15.51 -5.74,10.93 -46.65,63.56 -52.16,79.47 -6.2,-0.07 -36.25,-9.12 -45.15,-11.27 -10.71,-2.59 -38.63,-10.12 -48.29,-8.22 -5.61,8.58 -8.83,15.35 -13.69,25.92 -4.43,9.62 -9.02,17.4 -13.4,27.52 -4,9.25 -8.42,19.11 -12.95,27.96 -4.78,9.33 -8,18.86 -12.65,28.37 -10.51,21.48 -6.76,20.3 26.92,39.82 7.14,4.14 48.59,25.14 51.08,28.03l-12.8 42.07c-4.05,14.12 -8.56,30.61 -10.87,45.58 -25.16,4.57 -52.2,5.86 -77.38,11.06 -3.5,0.72 -20.63,3.19 -22.94,7.43 -2.12,6.53 -14.39,117.89 -13.48,123.86 1.82,12.02 32.69,17.07 44.05,20.9 15.41,5.2 31.75,7.72 47.16,13.06l1.51 0.59c1.43,0.67 1.28,0.64 2.08,1.28 1.65,8.89 0.93,33.27 1.46,44.47 0.72,15.21 2.94,29.88 3.56,44.79 -10.28,2.24 -36.47,14.9 -46.95,19.97 -7.51,3.64 -41.25,18.26 -43.83,24.2 -2.24,5.15 17.06,81.85 20.51,96.57 1.1,4.68 2.56,10.65 3.99,15.13 0.88,2.75 1.42,4.3 2.25,7.3l3.76 7.08c12.71,5.69 79.37,-2.63 98.12,-2.46 1.99,10.41 9.01,28.95 12.94,38.92 4.9,12.44 10.66,25.57 14.52,38.17 -0.14,0.2 -0.4,0.23 -0.47,0.57l-38.94 31.82c-7.35,5.8 -12.42,10.2 -19.62,16.31 -6.53,5.55 -12.97,10.61 -18.39,17.43 1.48,9.63 44.81,80.4 55.02,95.35 4.43,6.49 9.2,19.84 17.85,18.05 13.89,-2.87 39.19,-13.73 53.15,-19.56 7.38,-3.07 18.75,-8.54 26.09,-10.31l25.27 30.74c2.53,3.38 6.45,6.72 8.74,10.67 -6.09,7.7 -51.6,70.7 -51.44,75.82 1.34,3.34 6.38,8.72 8.95,11.51l10.42 10.19c2.17,1.96 3.59,2.53 5.62,4.69 18.46,19.6 39.18,36.24 59.3,53.83 5.23,4.57 17.7,17.59 24.72,14.49 1.93,-0.85 10.45,-6.81 12.34,-8.19l45.33 -36.73c4.26,-3.54 7.28,-6.92 10.61,-10.75 3.53,0.72 7.88,4.92 10.68,7.01 3.97,2.96 6.72,4.76 10.69,7.68 21.37,15.71 44.51,28.16 67.05,42.07 -0.83,13.45 -27.81,84.26 -24.37,91.9 13.2,12.89 91.76,41.6 115.15,51.96 11,4.87 20.44,12.68 28.37,2.27 15.59,-20.47 30.52,-40.6 44.86,-62.24 2.8,-4.23 5.74,-9.6 9.21,-12.94 7.42,2 15.1,5 23.15,7.27l48.33 11.76c8.16,1.62 18.74,2.47 26.4,4.45 6.28,27.72 8.66,59.84 16.33,86.19 6.08,20.88 14.75,14.85 33.16,14.92l95.3 0.74c6.26,0 17.65,0.63 23.35,-0.55 4.37,-0.9 4.66,-1.88 6.4,-5.9 1.36,-3.14 2.54,-6.31 3.45,-9.19 4.71,-14.79 18.38,-69.67 19.23,-83.99 12.95,-2.84 34.57,-4.73 49.33,-7.35 8.34,-1.48 16.26,-3.09 24.15,-4.75 6.57,-1.38 19.16,-5.49 23.82,-5.92 12.03,18.65 36.91,57.38 51.62,74.05 8.58,9.72 8.94,6.78 27.71,-0.94 13.81,-5.68 111.64,-41.61 114.79,-48.71 1.08,-12.03 -4.53,-33.03 -6.81,-44.83 -2.28,-11.76 -7.83,-31.15 -8.63,-42.23 10.57,-7.31 25.56,-13.38 36.53,-20.13 12.2,-7.5 24.17,-13.66 35.82,-21.23 19.37,-12.59 10.01,-13.08 32.64,5.37 5.29,4.31 10.96,7.94 16.48,12.2 5.62,4.34 27.69,24.06 33.25,23.28 6.14,-0.86 45.1,-39.59 53.41,-47.12 9.32,-8.46 49.36,-47.41 50.12,-51.13 -0.42,-5.71 -5.54,-11.47 -8.43,-15.76 -3.45,-5.13 -6.07,-10.27 -9.93,-15.09 -3.43,-4.28 -17.97,-23.23 -19.99,-28.82 5.96,-6.81 21.71,-22.63 25.45,-29.05 10.61,1.66 56.2,24.65 62.89,22.96 8.72,-6.43 26.41,-34.88 33.78,-46.66l30.94 -49.36c14.03,-21.98 7.94,-19.45 -22.32,-41.26 -22.97,-16.56 -47.14,-30.65 -69.86,-47.64 -13.65,-10.2 -32.21,-23.66 -47.39,-31.2 -18.54,-9.21 -23.38,4.84 -41.9,30.36l-43.29 56.37c-4.51,4.74 -6.04,7.28 -9.82,10.85l-29 29.82c-1.43,1.38 -3.59,3.95 -4.97,5.32 -1.97,1.95 -3.44,2.97 -5.4,4.95 -4.21,4.26 -5.68,5.33 -9.92,9.61 -17.93,18.12 -58.43,45.43 -78.66,59.62 -14.81,10.39 -32.23,20.05 -49.1,29.27 -33.35,18.22 -71.48,32.87 -110.09,45.59 -37.13,12.24 -87.06,21.54 -127.71,25.98 -49.2,5.37 -95.23,3.38 -144.31,-1.13 -43.3,-3.97 -86.68,-16.04 -126.33,-27.43 -36.57,-10.5 -76.79,-29.08 -109.21,-46.43 -35.79,-19.16 -66.09,-39.75 -94.59,-62.59 -12.44,-9.97 -30.59,-25.56 -41.81,-37.39l-19.27 -19.94c-3.28,-3.73 -5.83,-7.37 -9.04,-10.64 -23.81,-24.18 -58.66,-76.6 -74.1,-106.91 -41.1,-80.68 -65.33,-153.18 -78.27,-247.75 -12.57,-91.86 0.06,-215.27 27.43,-294.09 10.4,-29.97 19.63,-59.49 33.94,-87.31l13.62 -27.24c4.73,-9.25 9.54,-17.03 14.4,-25.34 2.72,-4.66 4.96,-7.83 7.63,-12.19l12.06 -18.12c1.32,-2.12 2.52,-3.99 4.12,-6.3l12.15 -16.99c7.71,-9.54 14.18,-19.49 22.41,-28.42l28.66 -31.24c17.93,-18.69 41.52,-41.04 61.71,-56.62 89.35,-68.94 190.84,-113.1 300.38,-128.27 97.84,-13.55 182.39,-4.58 273.21,20.24 47.21,12.9 95.06,33.1 137,57.02 29.59,16.87 43.93,25.53 71.74,46.58l92.7 85.34 13.38 15.64c1.85,2.68 2.77,3.08 4.78,5.52 1.82,2.22 2.53,3.86 4.41,6.02 2.12,2.45 3.01,3.02 4.79,5.54l8.51 11.23c12.19,13.83 30.31,48.57 42.85,56.84 7.71,5.08 21.27,-4.57 27.19,-8.78l92.27 -65.18c14.71,-10.39 34.79,-22.58 45.77,-33.87 -0,-7.39 -19.31,-37.14 -23.41,-44.45 -10.83,-19.29 -24.82,-46.79 -39.34,-62.91 -7.41,-8.21 -14.58,-2.4 -23.46,1.09 -11.68,4.6 -37.4,17.76 -47.36,19.41 -6.9,-10.86 -27.36,-28.68 -31.45,-37.93 3.35,-6.14 8.41,-11.61 12.13,-17.13l17.83 -25.87c19.22,-31.07 22.72,-25.52 -4.86,-48.55l-66.31 -54.81c-26.16,-21.97 -24.79,-15.84 -47.81,4.48l-37.06 33.96c-2.82,2.82 -2.01,2.96 -5.42,4.64l-20.36 -13.1c-7.53,-4.55 -14.81,-8.65 -21.93,-12.68 -14.15,-8.02 -31.81,-14.94 -44.79,-23.22 -0.84,-7.69 13.25,-62.97 15.25,-80.01 2.18,-18.51 -10.65,-18.22 -30.29,-25.99 -19.93,-7.88 -91.04,-37.64 -107.44,-38.83 -2.87,3.55 -4.82,5.29 -7.13,9.01l-45.63 74.52c-31.48,-10.21 -66.4,-13.88 -99.31,-17.54 -7.26,-0.81 -5.58,-5.12 -7.05,-13.71 -1.08,-6.27 -2.05,-11.97 -3.2,-18.22 -2.2,-11.9 -4.79,-23.23 -6.96,-34.61 -2.13,-11.17 -4.48,-25.96 -12.28,-29.84 -5.65,-2.81 -143.22,-2.26 -149.26,4.14 -3.67,3.88 -16.25,70.12 -18.96,85.43 -3.35,18.92 1.95,8.29 -42.05,18.63 -10.65,2.5 -20.94,4.88 -31.41,7.66 -7.91,2.1 -25.01,8.75 -31.36,9.04zm151.65 -88.86c-3.42,14.17 -12.94,86.73 -18.8,93.16 -1.79,1.95 -67.09,12.66 -75.85,14.99 -11.73,3.12 -64.83,19.58 -71.82,19.44l-13.43 -18.66c-4.59,-6.64 -8.69,-12.34 -13.01,-19.24 -4.19,-6.68 -8.72,-12.15 -13.29,-18.98 -2.98,-4.46 -9.5,-16.16 -13.24,-18.88l-66.56 30.52c-6.18,2.84 -18.03,7.57 -22.49,10.94 1.32,10.42 22.6,77.84 19.13,86.42 -1.24,3.07 -66.65,45 -75.48,52.08l-36.3 28.27c-14.21,12.1 -14.7,14.68 -25.44,8.45 -15.71,-9.13 -51.22,-40.79 -63.27,-44.45 -8,10.48 -25.04,27.51 -35.01,36.09 -2.9,2.5 -6.37,6.03 -8.96,8.56l-26.83 28.17c2.69,4.7 20.77,24.3 26.43,30.79 4.66,5.35 7.98,10.87 13.1,15.94 3.07,3.04 11.04,13.02 12.37,17.28 -1.08,2.75 -5.53,9.37 -7.41,11.94 -19.57,26.6 -37.83,52.61 -55.14,81.24 -19.07,31.54 -14.84,27.59 -44.88,20.5 -9.74,-2.3 -19.9,-4.87 -29.53,-7.52 -9.4,-2.59 -20.48,-6.72 -29.59,-8.34 -1.91,2.17 -15.33,34.1 -17.82,39.77 -3.63,8.29 -16.48,33.63 -17.82,40.67 14.23,6.52 70.41,37.21 79.76,43.77 -0.11,9.9 -12.29,42.53 -15.54,54.73 -5.07,19.03 -10,37.55 -14.12,57.13 -1.6,7.59 -2.51,23.08 -9.48,25.43 -5.84,1.97 -22.97,2.91 -30.2,3.6 -11.28,1.07 -52.62,3.31 -59.59,6.88l-8.57 84.52 89.13 22.21c1.3,10.24 0.67,53.79 1.77,71.04 0.87,13.62 6.49,58.12 5.46,67.62 -7.36,6.05 -71.85,31.01 -86.24,38.13 1.27,10.03 6.96,28.12 9.39,39.13 2.98,13.53 5.7,27.1 8.73,39.86 12.18,-0.15 88.16,-7.57 92.08,-5.26 3.66,2.29 4.97,10.6 6.3,15.27l16.31 47.06c4.35,10.06 7.73,20.19 11.96,30.23 2.99,7.12 11.14,24.29 12.3,31.01 -3.97,5.96 -46.13,37.21 -55.14,44.49 -3.46,2.8 -5.4,4.27 -8.98,7.44 -3.32,2.95 -6.37,4.74 -9.82,7.74 1.41,9.75 33.83,56.24 39.02,70.86 17.44,-3.87 65.67,-32.37 81.37,-33.09 5.84,9.68 34.86,44.17 43.84,54.37 4.89,5.56 18.12,20.26 19.78,26.11 -3.35,6.84 -51.36,72.48 -51.44,72.69 3.63,5.68 11.21,10.35 16.22,14.82 5.82,5.2 10.8,9.41 16.29,14.58 10.66,10.06 22.45,20.01 32.51,30.13 7.79,-3.99 35.71,-29.89 45.38,-37.63 5.4,-4.32 10.21,-7.82 15.53,-12.16 7.82,-6.38 8.64,-8.86 17.14,-2.64 5.53,4.04 10.74,7.8 16.18,11.41 23.98,15.94 41.94,28.96 67.25,44.02 45.13,26.84 39.19,9.79 25.02,65.3 -2.19,8.57 -12.32,40.22 -12.47,45.76l88.28 37.13c3.51,-1.28 22.47,-32.33 26.82,-39 8.28,-12.7 18.05,-28.83 27.22,-39.62 8.13,0.44 25.55,6.51 34.37,8.9 36.13,9.79 71.6,16.93 108.72,23.29 6.37,17.01 11.91,60.11 16.08,81.98l2.72 11.28c0.08,0.17 0.23,0.51 0.39,0.74l99.05 0.85c6.35,-29.55 11.69,-65.54 20.12,-93.74 5.96,-1.65 58.99,-6.8 74.81,-9.57l70.19 -14.63c12.83,17.74 26.37,38.87 38.32,58.36 3.76,6.14 8.45,15.87 12.01,20.18 7.12,-3.11 12.76,-6.78 20.67,-9.99 12.74,-5.17 60.34,-22.27 68.54,-27.49 -2.66,-24.42 -16.97,-59.52 -14.79,-84.8 7.61,-5.05 48.78,-25.69 63.87,-34.52 10.27,-6.01 21.08,-11.52 30.78,-18.06 5.58,-3.76 26.21,-17.8 31.08,-19.28 5.18,2.33 11.16,8.03 16.4,11.62 5.07,3.48 10.83,8.41 15.54,12.14 9.5,7.51 21.19,18.64 30.94,24.74 7.59,-4.92 38.61,-36.9 48.24,-45.79 3.79,-3.5 14.32,-12.02 16.46,-15.65 -4.12,-3.94 -6.59,-8.56 -10.04,-13.35l-9.96 -13.96c-6.76,-9.04 -15.61,-18.53 -20.21,-28.75 1.59,-4.73 9.43,-12.5 13.19,-16.96 13.42,-15.88 31.18,-31.29 42.69,-48.15 13.67,-0.93 47.27,20.03 62.08,21.51 10.75,-13.27 27.4,-46.91 41.4,-64.9l-1.03 -1.13c-0.79,-0.72 -0.53,-0.56 -1.72,-1.43l-10.35 -6.96c-16.71,-10.75 -88.62,-62.6 -96.09,-66.03l-14.4 20.59c-7.21,10.98 -15.61,20.03 -22.68,30.27 -5.09,7.39 -34.14,40.4 -40.86,47.12l-17.39 17.64c-11.6,11.63 -23.43,22.51 -36.68,33.31 -39.15,31.9 -80.19,60.7 -124.86,83.4 -220.93,112.29 -490.19,101.16 -697.53,-38.06 -20.89,-14.03 -40.69,-28.6 -59.33,-45.15 -12.78,-11.34 -24.84,-21.1 -35.92,-34.1 -5,-5.86 -12.32,-11.38 -17.49,-17.58 -9.66,-11.6 -19.31,-21.89 -28.25,-33.88 -1.78,-2.38 -1.73,-2.52 -4.11,-5.24 -26.31,-30.11 -62.45,-98.06 -78.69,-134.49 -41.35,-92.76 -62.4,-197.58 -61.58,-302.89 1.01,-129.01 38.24,-265.14 101.62,-367.15 13.75,-22.14 28.65,-42.68 43.74,-63.49l7.68 -9.95c9.05,-8.94 15.48,-19.58 24.22,-28.6l34.83 -35.28c2.82,-2.81 6.65,-5.41 9.37,-8.14l68.4 -54.63c66.62,-44.58 111.01,-64.55 187.28,-89.4 70.31,-22.91 163.24,-31.32 240.93,-24.55 81.32,7.08 149.47,25.76 219.42,53.78 65.88,26.39 125.15,66.4 172.58,105.62l18.4 16.56c15.62,13.35 39.59,36.75 51.96,53.3 6.16,8.24 13.46,14.67 23.63,29.23l15.43 19.83c4.92,6.97 16.74,28.81 21.28,32.75 8.69,-6.11 18.02,-13.46 26.91,-20.01 9.18,-6.76 19.55,-13.15 28.03,-20.03 15.17,-12.3 42.1,-28 55.21,-40.06l-17.32 -32c-3.11,-5.91 -5.64,-9.57 -8.81,-15.21 -2.35,-4.18 -6.46,-12.39 -9.36,-15.74 -9.16,0.88 -44.69,18.55 -58.63,23.25 -9.4,3.18 -9.95,-4.36 -14.97,-10.31l-12.97 -14.96c-6.94,-8.4 -39.45,-40.97 -39.36,-46.78 0.09,-5.76 41.78,-58.86 45.42,-67.64 -6.86,-2.97 -26.02,-20.91 -33.55,-26.64l-24.98 -21.25c-2.36,-2.11 -5.72,-4.19 -8.14,-6.93 -4.71,2.29 -34.53,31.95 -42.99,38.34 -27.68,20.9 -14.89,27.03 -47.51,4.82 -23.13,-15.75 -51.35,-30.83 -76.89,-44.21 -9.49,-4.97 -17.77,-8.48 -26.17,-14.07 0.6,-19.73 15.45,-70.7 17.56,-88.17 -17.69,-3.78 -46.73,-17.97 -65.91,-24.87 -6.81,-2.45 -16.57,-6.96 -22.62,-8.51 -7.83,13.81 -15.67,27.18 -24.44,41.13 -3.3,5.24 -23.56,38.25 -26.62,39.42 -7.96,0.1 -26.68,-5.96 -35.35,-8.02 -11.89,-2.82 -24.8,-4.94 -36.91,-6.98 -10.49,-1.77 -72.95,-8.25 -76.16,-10.36 -3.28,-5.31 -16.1,-78.33 -18.59,-91.16 -12.06,2.44 -35.36,0.86 -49.13,1.14 -16.58,0.33 -33.18,0.29 -49.76,0.32z"/>
   <path class="fil1" d="M634.53 923.83c0.05,18.74 3.85,39.39 11.88,56.21 0.98,2.05 2.02,3.46 2.94,5.45 2.53,5.47 5.83,11.14 9.47,15.95 6.62,8.73 6.36,9.73 15.32,18.91 2.37,2.43 5.51,5.67 8.59,8.26 4.49,3.77 9.44,7.62 14.48,10.82 5.17,3.28 10.54,6.66 16.34,9.32 8,3.67 15.59,6.68 24.67,8.89 10.27,2.51 17.95,3.53 29.16,4.68 12.78,1.31 26.58,-0.48 38.54,-2.8 2.44,-0.47 4.27,-1.23 6.74,-1.63 8.74,-1.43 27.18,-9.5 35.67,-14.72 3.4,-2.09 7.43,-4.08 10.64,-6.18 16.9,-11.08 31.87,-24.75 47.27,-37.84l26.61 -23.98c2.75,-3.01 5.74,-5.96 9.06,-8.19 2.7,0.77 30.81,25.98 35.11,29.31l36.69 27.77c6.74,4.28 12.26,8.27 19.81,12.17 3.75,1.94 6.78,4.14 10.31,5.58 3.91,1.6 7.37,3.35 11.55,5 7.64,3 15.42,6.09 24.3,7.93 20.36,4.21 42.16,4.46 62.51,-0.18 26.61,-6.08 45.51,-19.51 64.87,-37.33 10.22,-9.41 22.75,-27.6 28.59,-40.35 5.4,-11.8 5.33,-11.92 9.1,-25.63 5.56,-20.22 4.05,-55.96 -2.91,-75.4 -1.39,-3.87 -2.72,-7.81 -4.17,-11.98 -2.45,-7.02 -7.65,-14.73 -10.93,-21.19 -1.13,-2.23 -1.8,-2.92 -3.21,-4.79 -10.94,-14.49 -12.49,-17.04 -27.27,-28.88 -19.72,-15.81 -45.35,-23.84 -72.12,-23.91 -29.71,-0.08 -54.95,13.08 -76.21,30.81 -13.01,10.84 -25.77,22.52 -37.73,34.39l-36.69 35.45c-5.92,6.06 -11.97,12.14 -17.98,18.3 -1.41,1.44 -3.14,2.56 -4.58,4.25 -2.62,3.09 -29.82,28.97 -31.97,30.9 -1.8,1.61 -2.77,2.8 -4.48,4.38 -10.83,10.03 -21.59,20.98 -32.79,30.45 -6.53,5.52 -12.91,11.04 -19.66,16.18 -22.22,16.91 -45.06,32.44 -75.68,32.42 -34.07,-0.02 -54.24,-18.44 -73.98,-40.99 -13.71,-15.66 -22.95,-39.9 -22.52,-61.23 0.4,-19.39 8.05,-37.04 17.55,-49.24 5.25,-6.74 9.32,-11.04 16.59,-16.32 14.26,-10.35 33.45,-16.2 51.55,-12.87 2.49,0.46 4.47,0.53 6.52,1.32 1.94,0.75 4.29,1.24 6.39,2.01 8.03,2.96 15.4,6.38 22.76,10.4 7.95,4.34 21.5,15.26 28.87,20.77 3.42,2.56 6.05,4.62 9.25,7.2l8.75 7.66c3.52,2.91 5.49,4.64 8.99,7.47 1.32,1.08 8.01,6.85 8.45,8.36 -1.82,2.99 -25.6,23.65 -28.74,26.44 -18.36,16.31 -43.36,37.3 -68.87,41.36 -9.24,1.47 -16.82,1.08 -25.56,-0.31 -2.22,-0.35 -3.47,-0.89 -5.29,-1.28 -4.92,-1.08 -13.46,-4.04 -17.07,-3.92 0.06,8.83 16.93,16.51 23.99,18.73 11.91,3.74 25.45,2.41 37.14,-0.49 13.58,-3.37 31.72,-13.11 42.37,-21.58 3.9,-3.1 8.25,-6.3 11.94,-9.55l36.12 -31.74c4.29,-4.2 9.73,-8.48 14.17,-12.83 1.77,-1.73 3.23,-3.41 5.18,-5.36 3.75,-3.73 7.3,-6.44 11.18,-10.33 2.3,-2.31 20.97,-18.6 22.04,-21.14 -0.42,-0.93 -0.16,-0.42 -0.81,-1.06l-3.64 -2.66c-13.79,-10.46 -26.53,-22.56 -39.81,-33.52 -2.92,-2.42 -5.46,-5.14 -8.24,-7.32 -6.29,-4.93 -11.58,-9.46 -18.26,-14.63 -9.66,-7.48 -19.42,-13.37 -29.83,-19.03 -6.99,-3.79 -15.32,-6.99 -22.97,-9.77 -4.47,-1.62 -8.09,-2.44 -12.57,-3.7 -4.06,-1.15 -9.5,-2.09 -13.7,-2.56 -33.64,-3.76 -67.24,5.88 -93,25.96 -13.53,10.55 -23.94,21.78 -33.43,35.83l-6.41 10.93c-1.02,1.94 -1.82,3.58 -2.83,5.62 -9.4,19.15 -14.18,40.26 -14.12,64.58zm353.67 -0.85c0.5,1.16 20.93,18.21 23.75,20.51 8.02,6.57 16.96,13.58 25.14,19.49 4.27,3.08 8.87,6.14 13.2,9.13 5.66,3.9 14.68,8.86 21.26,12 2.6,1.24 4.7,2.42 7.77,3.54 5.43,1.99 11.38,3.89 17.36,5 10.46,1.94 8.2,2.17 19.95,2.01 6.88,-0.09 13.8,-0.86 19.5,-2.67 10.71,-3.4 19.95,-8.49 28.4,-16.15 15.01,-13.6 27.62,-35.89 25.47,-64.39 -0.99,-13.17 -5.15,-24.83 -10.8,-33.74 -9.15,-14.41 -19.55,-25.26 -35.12,-31.9 -5.01,-2.14 -11.16,-4.6 -17.02,-5.19 -19.51,-1.98 -37.7,0.76 -53.9,10.95 -6.62,4.16 -13.65,8.48 -19.88,13.34 -4.62,3.6 -14.97,11.83 -18.5,15.23l-11.79 10.57c-3.82,3.47 -7.95,7.36 -11.71,10.61 -2.17,1.88 -3.95,3.64 -5.69,5.29 -3.68,3.49 -16.73,14.8 -17.37,16.36z"/>
   <path class="fil1" d="M1463.45 1177.8c4.24,0 6.86,0.33 11.51,-2.79 10.9,-7.33 2.35,-21.51 -1.67,-30.18 -4.8,-10.36 -8.17,-19.44 -12.46,-29.99l-6.46 -14.69c-5.94,-15.57 -13.19,-29.53 -18.56,-45.15l-12.37 -29.88c-4.44,-9.94 -7.82,-20.31 -12.31,-30.07 -5.79,-12.59 -12.42,-32.22 -18.07,-45.53 -1.07,-2.51 -1.77,-4.87 -2.84,-7.34l-6.16 -15.07c-2.06,-5.49 -4.21,-9.68 -6.08,-15.14l-6.04 -15.12c-5.04,-10.27 -10.41,-26.64 -15.28,-37.68 -2.24,-5.08 -3.67,-10.15 -5.99,-15.26 -2.09,-4.61 -4.34,-10.5 -6.01,-15.3 -2.01,-5.8 -9.68,-23.53 -12.41,-29.87l-12.11 -30.35c-3.92,-10.34 -7.99,-19.57 -12.23,-30.19l-9.13 -22.55c-0.97,-2.52 -2.2,-4.59 -3.23,-7.43l-12.09 -29.89c-2.19,-4.96 -3.77,-10.32 -6.03,-15.15 -2.82,-6.01 -4.93,-12.64 -7.61,-18.67 -0.58,-1.3 -0.88,-2.7 -1.44,-4.16l-12.34 -30c-2.81,-6.94 -4.94,-17.99 -13.89,-18.01 -8.89,-0.02 -99.27,-0.26 -104.02,0.55 -4.95,0.84 -8.7,5.96 -11.73,9.26 -6.53,7.11 -13.01,14.69 -19.87,22.35l-9.55 11.13c-3.34,4.32 -6.5,7.46 -9.74,11.4 -1.72,2.08 -3.12,3.38 -4.93,5.6 -1.75,2.15 -2.91,3.5 -4.97,5.58 -3.17,3.19 -6.71,7.86 -9.71,11.38 -13.95,16.39 -30.2,33.9 -44.41,50.61 -17.75,20.88 -36.67,40.69 -54.43,61.67 -3.06,3.62 -6.47,8.02 -9.72,11.39 -1.79,1.84 -3.28,3.41 -5.04,5.5 -1.24,1.47 -3.61,5.18 -4.6,5.98 -2.48,-0.57 -4.85,-5.46 -6.45,-7.48 -2.11,-2.65 -3.96,-4.98 -6.38,-7.98 -8.33,-10.28 -17.59,-20.7 -26.69,-30.32 -2.19,-2.32 -4.18,-5.26 -6.65,-7.69 -2.43,-2.4 -4.52,-4.66 -7.04,-7.33 -8.98,-9.49 -17.86,-20.1 -27.18,-29.8 -5.16,-5.36 -12.43,-13.94 -17.32,-18.56 -1.46,-1.37 -2.1,-2.44 -3.45,-3.74 -2.61,-2.52 -4.44,-5.21 -6.71,-7.62 -18.83,-19.99 -36.48,-39.74 -54.87,-59.53l-13.76 -14.51c-2.48,-2.51 -4.21,-4.63 -7.03,-7.33 -2.34,-2.24 -5.13,-4.57 -7.48,-6.85 -6.03,-5.82 -8.02,-8.51 -19.99,-8.58l-84.65 -0.02c-18.35,0 -18.13,-1.7 -21.48,6.63 -2.89,7.18 -5.82,13.18 -8.71,20.08 -1.38,3.29 -2.51,6.83 -3.94,10.14 -1.5,3.48 -2.99,6.57 -4.35,10.1 -2.63,6.8 -5.86,13.7 -8.5,20.33 -2.57,6.45 -5.38,13.61 -8.29,20.47 -2.88,6.78 -5.38,13.33 -8.67,20.12l-12.57 30.32c-1.32,3.4 -2.98,6.69 -4.38,9.98 -2.88,6.75 -5.85,13.49 -8.55,20.35 -1.21,3.08 -3.01,6.6 -4.35,10 -1.37,3.47 -2.52,6.8 -4.28,10.13l-8.38 20.03c-3.12,6.79 -5.87,13.75 -8.63,20.16 -0.73,1.69 -1.03,3.67 -1.91,5.36 -2.53,4.84 -4.28,10.28 -6.45,15.17 -5.96,13.46 -11.27,26.84 -16.8,40.44 -2.85,7.01 -5.56,13.73 -8.5,20.31 -2.79,6.24 -5.51,13.44 -8.22,20.19 -1.49,3.71 -3.07,6.48 -4.48,9.86 -1.49,3.58 -2.69,6.92 -4.05,10.4 -1.17,3.01 -2.89,6.48 -4.23,9.78 -6.91,17.07 -13.59,34.1 -21.12,50.92 -4.36,9.74 -7.93,20.55 -12.59,30.22 -1.48,3.07 -2.6,6.85 -4.1,10.33 -4.26,9.9 -12.95,31.97 -17.33,40.36l-17.34 39.89c-3.16,6.77 -5.51,13.3 -8.72,20.05l-8.96 19.89c-2.39,6 -1.8,11.22 1.86,16.6 1.3,1.91 2.24,1.93 4.81,2.27 7.45,0.99 19.4,0.25 27.58,0.34 28.21,0.28 56.44,-0.14 84.65,-0.05 18.75,0.06 37.54,0.09 56.3,0.06 17.28,-0.02 20.77,1.79 27.18,-15.57 0.68,-1.85 1.28,-3.51 1.98,-5.35 1.34,-3.59 2.92,-5.65 4.3,-9.66 0.6,-1.76 1.62,-3.54 2.22,-4.95 1.48,-3.5 3.11,-6.59 4.45,-10.03 3.99,-10.2 9.34,-19.52 13.35,-29.84 2.64,-6.79 5.98,-13.28 9,-19.75 1.48,-3.17 2.73,-6.75 4.25,-10.16 3.01,-6.74 5.98,-13.15 8.71,-19.7 3.21,-7.7 8.16,-18.13 10.64,-25.48 0.9,-2.69 0.11,-3.39 -1.48,-5.21 -2.18,-2.5 -4.62,-5.07 -6.85,-7.5 -2.26,-2.45 -4.64,-4.71 -6.88,-7.46 -1.4,-1.72 -5.22,-7.12 -6.65,-7.5 -0.83,1.22 -1.31,2.73 -2.02,4.09 -0.71,1.36 -1.59,2.76 -2.32,4.43 -1.54,3.48 -3.14,6.2 -4.51,9.02 -2.94,6.08 -5.6,11.91 -8.54,18.22l-25.75 54.79c-2.69,5.65 -24.64,53.61 -26.08,54.35 -1.03,0.53 -101.18,-0.32 -112.24,0.27 -4.52,0.24 -11.87,0.5 -16.26,0.27l6.75 -11.61c8.1,-16.24 15.15,-33.9 23.52,-50.18 2.11,-4.1 4.18,-8.33 6.08,-12.52 2.36,-5.21 3.98,-7.79 2.87,-14.51 -0.77,-4.66 0.52,-12.26 3.1,-14.86 0.83,-0.83 4.57,-1.96 6.01,-2.79 6.09,-3.53 9.67,-8.67 12.57,-15.35 4.95,-11.38 -11.94,-15.25 -6.78,-26.98 1.32,-3.01 5.22,-7.98 8.27,-9.89 4.15,-2.6 8.7,3.31 13.56,-4.07 3.48,-5.27 12.43,-20.7 8.46,-26.53 -1.43,-2.1 -2.44,-3.1 -4.07,-4.81 -1.49,-1.57 -3.53,-3.3 -3.57,-5.74 -0.1,-5.31 3.83,-8.55 7.87,-10.76 8.98,-4.9 14.03,-7.94 19.04,-17.68 3.04,-5.91 3.83,-7.91 -1.8,-11.78 -3.92,-2.69 -9.66,-2.24 -5.95,-10.22 4.91,-10.53 13.58,-6.81 19.97,-17.1 2.23,-3.6 4.46,-8.18 6.29,-11.89 9.52,-19.35 -2.55,-21.22 0.16,-28.54 4.31,-11.65 11.81,-7.4 18.64,-18.01 2.17,-3.37 4.67,-8.5 6.49,-12.15 1.98,-3.95 5.47,-8.55 4.4,-14.3 -0.87,-4.68 -6.48,-6.42 -9.5,-8.95 -0.51,-3.93 0.91,-6.62 2.81,-8.5 3.89,-3.87 10.39,-5.11 14.11,-8.64 6.7,-6.35 15.55,-18.06 18.73,-27.34 3.16,-9.24 -16.63,-10.49 -4.74,-21.08 6.95,-6.19 17.26,-6.23 24.25,-22.18 4.89,-11.16 -5.17,-12.53 -5.4,-15.98 -0.14,-2.04 8.21,-10.33 10.04,-12.51 2.73,-3.26 5.78,-10.37 8.03,-14.83 1.65,-3.27 9.07,-19.6 10.3,-23.56l2.7 -8.83c3.67,-0.66 64.92,-0.17 71.67,-0.06 5.88,0.09 4.64,0.54 10.05,5.97 1.59,1.6 2.67,2.77 4.1,4.33l31 34.01c2.63,2.8 5.07,5.44 7.64,8.41l19.53 20.95c1.5,1.43 2.87,2.63 4.22,4.22l31.14 33.45c5.61,5.72 10.41,11.35 15.66,16.85l47.34 50.15c4.45,4.99 10.77,11.69 15.6,16.91 4.5,4.86 27.44,29.05 29.57,33.75l0.58 1.23c4.37,-1.16 19.59,-18.03 24.26,-22.66 10.64,-10.55 20.14,-22.13 30.53,-32.77 2.69,-2.76 4.9,-5.82 7.48,-8.57 2.2,-2.35 5.48,-5.62 7.39,-8.25 1.91,-2.62 5.02,-5.56 7.32,-8.26l14.99 -16.67c4.71,-5.44 10.67,-11.92 14.9,-16.78 5.32,-6.11 9.64,-10.09 15.05,-16.59 4.36,-5.24 9.94,-10.84 14.86,-16.37 8.16,-9.14 14.16,-16.68 22.11,-25.19 4.33,-4.64 7.66,-9.23 10.88,-12.75 1.46,-1.6 2.64,-2.55 3.95,-4.05 5.43,-6.21 25.71,-29.24 29.26,-34.1 3.1,-4.25 4.27,-2.91 13,-2.96 10.42,-0.05 20.85,-0.02 31.28,-0.04 10.05,-0.02 21.41,-0.45 31.3,0.06 2.81,7.1 4.37,14.03 7.51,20.88 2.6,5.69 6.34,15.35 8.69,19.76 1.63,3.06 3.22,5.65 5.06,8.9 1.68,2.97 -0.04,12.26 5.94,22.92 1.84,3.29 3.28,6.12 7.8,6.44 4.06,0.29 8.7,0.19 12.39,1.5 3.25,1.16 6.66,3.9 6.92,7.6 0.46,6.39 -15.41,4.44 -14.45,14.47 0.51,5.25 10.43,30.24 16.94,33.19 2.09,0.95 3.49,0.91 6.17,0.99 -0.55,1.85 -2.13,1.18 -3.48,2.12 -0.05,7.1 1.01,8.83 3.26,14.27 1.72,4.17 3.28,8.29 5.19,12.2 2.31,4.74 5.35,5.23 9.76,7.51 4.04,2.08 7.86,4.52 7.3,10.43 -2.46,2.07 -6.09,2.61 -8.52,4.41 -0.12,7.35 7.38,20.21 12.14,25.2 2.85,2.99 7.91,4.7 7.77,10.93 -0.14,6.07 -5.27,4.64 -1.87,15 2.53,7.72 8.56,20 13.89,23.83 3.65,2.63 7.82,4.38 11.63,6.87 3.33,2.18 8.16,6.22 8.22,11.32 -3.15,-0.33 -6.69,-1.5 -9.99,-0.43 -2.25,0.73 -5.09,2.73 -4.84,5.7 0.18,2.2 6.14,12.53 7.33,14.29 4.93,7.24 10.52,9.5 15.39,16.67 7.42,10.92 -0.66,8.2 -2.88,14.14 -2.81,7.52 4.97,20.86 9.62,25.08 7.41,6.72 14.12,6.99 19.93,15.06 1.2,1.67 2.89,6.31 2.69,9.15 -2,5.64 -24.04,-0.9 -3.01,31.31 3.43,5.26 8.95,6.51 10.5,8.87 2.48,3.78 4.79,9.95 5.35,14.51 0.61,4.95 0.49,7.28 2.25,11.45l7.72 18.53c1.52,2.84 2.56,6.03 3.99,9.14 5.42,11.85 10.04,24.61 16.12,36.46 0.77,1.5 1.34,2.96 2.18,4.6 0.85,1.66 1.98,2.63 2.54,4.38 -10.51,0.31 -22.32,-0.16 -33.01,-0.19 -10.98,-0.03 -21.96,-0.03 -32.94,-0.01 -6.75,0.01 -60.45,0.61 -65.72,-0.09 -3.64,-5.64 -17.59,-39.36 -23.03,-50.23 -2.71,-5.42 -5.18,-11.11 -7.93,-16.62l-7.9 -16.69c-4.37,-10.26 -11.05,-22.74 -15.9,-33.26 -1.31,-2.84 -2.84,-5.18 -4.04,-8.25 -1.27,-3.24 -2.27,-5.13 -3.92,-8.24 -3.55,-0.27 -10.03,7.77 -12.4,10.22 -14.77,15.35 -12.93,7.61 -6.81,23.51 1.38,3.6 3.38,7.49 4.88,11.04 3.13,7.4 16.95,38.6 20.07,44.42l20.28 44.59c3.14,7.41 6.71,14.29 10.69,21.91 5.6,10.73 7.55,10.7 21.25,10.68l161.27 -0.03z"/>
  </g>
 </g>
</svg>
